<svg width="456" height="441" viewBox="0 0 456 441" fill="none" xmlns="http://www.w3.org/2000/svg">
<rect width="456" height="441" rx="20" fill="#28221E"/>
<path fill-rule="evenodd" clip-rule="evenodd" d="M96.3761 127.167C115.168 127.083 125.256 135.811 126.119 153.881C126.13 154.107 126.464 154.12 126.496 153.895C127.335 147.992 127.172 142.611 125.666 137.934C120.695 122.497 101.734 120.472 88.2799 125.358C87.6093 125.601 87.4744 126.461 88.0318 126.906C98.5257 135.254 97.0975 158.04 122.64 148.165C118.651 135.829 110.472 128.186 96.3761 127.167Z" fill="#23A04E"/>
<path d="M313.249 104.48C312.703 104.48 312.136 104.42 311.549 104.3C310.976 104.193 310.436 104.013 309.929 103.76C309.436 103.52 309.036 103.207 308.729 102.82C308.423 102.42 308.269 101.933 308.269 101.36C308.269 100.947 308.363 100.54 308.549 100.14C309.056 99.0067 309.803 98.0933 310.789 97.4C311.789 96.7067 312.936 96.1867 314.229 95.84C313.749 95.48 313.509 95.0533 313.509 94.56C313.509 94.3067 313.556 94.06 313.649 93.82C313.756 93.58 313.876 93.3533 314.009 93.14C314.329 92.66 314.756 92.2333 315.289 91.86C315.823 91.4867 316.416 91.1733 317.069 90.92C317.723 90.6667 318.389 90.4733 319.069 90.34C319.763 90.2067 320.416 90.14 321.029 90.14C321.389 90.14 321.756 90.18 322.129 90.26C322.516 90.3267 322.836 90.46 323.089 90.66C323.343 90.86 323.469 91.16 323.469 91.56C323.469 91.92 323.316 92.2733 323.009 92.62C322.716 92.9533 322.343 93.12 321.889 93.12C321.783 93.12 321.663 93.1 321.529 93.06C321.409 93.0067 321.349 92.92 321.349 92.8C321.349 92.7333 321.376 92.6667 321.429 92.6C321.496 92.5333 321.576 92.5 321.669 92.5C321.736 92.5 321.789 92.5133 321.829 92.54C321.883 92.5667 321.936 92.58 321.989 92.58C322.256 92.58 322.463 92.46 322.609 92.22C322.756 91.9667 322.829 91.7533 322.829 91.58C322.829 91.3133 322.743 91.12 322.569 91C322.396 90.8667 322.183 90.78 321.929 90.74C321.689 90.7 321.449 90.68 321.209 90.68C320.636 90.68 320.029 90.74 319.389 90.86C318.749 90.98 318.116 91.1533 317.489 91.38C316.876 91.6067 316.316 91.8933 315.809 92.24C315.303 92.5867 314.896 92.9867 314.589 93.44C314.483 93.6133 314.389 93.7933 314.309 93.98C314.229 94.1667 314.189 94.36 314.189 94.56C314.189 94.8133 314.263 95.0333 314.409 95.22C314.569 95.4067 314.776 95.56 315.029 95.68C315.536 95.5867 316.036 95.52 316.529 95.48C317.036 95.44 317.543 95.42 318.049 95.42C318.156 95.42 318.323 95.44 318.549 95.48C318.776 95.5067 318.889 95.6 318.889 95.76C318.889 95.8933 318.809 96.0133 318.649 96.12C318.489 96.2267 318.309 96.3133 318.109 96.38C317.909 96.4467 317.743 96.4867 317.609 96.5C317.276 96.54 316.943 96.56 316.609 96.56C316.343 96.56 316.069 96.54 315.789 96.5C315.523 96.46 315.263 96.3933 315.009 96.3C314.929 96.3133 314.849 96.3267 314.769 96.34C314.703 96.3533 314.629 96.3733 314.549 96.4C313.336 96.6933 312.249 97.1533 311.289 97.78C310.329 98.4067 309.616 99.2533 309.149 100.32C309.003 100.653 308.929 100.987 308.929 101.32C308.929 101.8 309.063 102.207 309.329 102.54C309.609 102.873 309.963 103.14 310.389 103.34C310.816 103.54 311.283 103.68 311.789 103.76C312.296 103.853 312.776 103.9 313.229 103.9H313.469C314.749 103.9 315.989 103.687 317.189 103.26C318.403 102.833 319.489 102.247 320.449 101.5C320.663 101.327 320.876 101.133 321.089 100.92C321.316 100.707 321.496 100.493 321.629 100.28C321.736 100.12 321.816 99.9533 321.869 99.78C321.936 99.5933 321.969 99.4133 321.969 99.24C321.969 98.96 321.903 98.7667 321.769 98.66C321.649 98.54 321.509 98.4667 321.349 98.44C321.189 98.4133 321.043 98.3867 320.909 98.36C320.789 98.3333 320.729 98.2533 320.729 98.12C320.729 98.0267 320.763 97.9533 320.829 97.9C320.896 97.8467 320.976 97.82 321.069 97.82C321.549 97.82 321.929 97.96 322.209 98.24C322.503 98.5067 322.649 98.84 322.649 99.24C322.649 99.4667 322.609 99.6933 322.529 99.92C322.449 100.147 322.349 100.36 322.229 100.56C322.056 100.827 321.829 101.093 321.549 101.36C321.269 101.613 320.996 101.84 320.729 102.04C319.716 102.8 318.589 103.393 317.349 103.82C316.123 104.26 314.836 104.48 313.489 104.48H313.249ZM325.622 103.28C325.369 103.28 325.149 103.2 324.962 103.04C324.789 102.88 324.702 102.627 324.702 102.28C324.702 102 324.755 101.713 324.862 101.42C324.969 101.113 325.069 100.873 325.162 100.7C325.375 100.273 325.602 99.88 325.842 99.52C326.082 99.1467 326.262 98.88 326.382 98.72C326.142 98.7333 325.855 98.6733 325.522 98.54C325.202 98.4067 324.975 98.2333 324.842 98.02C324.669 98.2733 324.422 98.6867 324.102 99.26C323.782 99.82 323.375 100.413 322.882 101.04C322.802 101.147 322.709 101.2 322.602 101.2C322.402 101.2 322.302 101.113 322.302 100.94C322.302 100.873 322.322 100.813 322.362 100.76C322.562 100.48 322.809 100.12 323.102 99.68C323.409 99.2267 323.702 98.76 323.982 98.28C324.275 97.7867 324.509 97.3467 324.682 96.96C324.735 96.84 324.789 96.7133 324.842 96.58C324.909 96.4467 324.969 96.32 325.022 96.2C325.075 96.1067 325.149 96.0267 325.242 95.96C325.335 95.88 325.442 95.84 325.562 95.84C325.669 95.84 325.775 95.8867 325.882 95.98C325.989 96.06 326.042 96.1533 326.042 96.26C326.042 96.38 325.995 96.5333 325.902 96.72C325.822 96.8933 325.735 97.0733 325.642 97.26C325.549 97.4467 325.502 97.6133 325.502 97.76C325.502 97.88 325.602 97.96 325.802 98C326.002 98.04 326.149 98.06 326.242 98.06C326.602 98.06 326.902 97.9867 327.142 97.84C327.382 97.6933 327.549 97.62 327.642 97.62C327.722 97.62 327.789 97.6533 327.842 97.72C327.909 97.7733 327.942 97.8333 327.942 97.9C327.942 97.9933 327.902 98.0733 327.822 98.14C327.635 98.3133 327.415 98.56 327.162 98.88C326.909 99.2 326.655 99.5467 326.402 99.92C326.149 100.293 325.929 100.66 325.742 101.02C325.689 101.153 325.609 101.34 325.502 101.58C325.409 101.82 325.362 102.047 325.362 102.26C325.362 102.62 325.489 102.8 325.742 102.8C325.849 102.8 325.969 102.76 326.102 102.68C326.249 102.6 326.389 102.507 326.522 102.4C326.842 102.107 327.122 101.82 327.362 101.54C327.615 101.247 327.869 100.92 328.122 100.56C328.375 100.2 328.669 99.7667 329.002 99.26C329.055 99.1667 329.149 99.12 329.282 99.12C329.455 99.12 329.542 99.2 329.542 99.36C329.542 99.44 329.502 99.5533 329.422 99.7C329.235 100.033 328.989 100.4 328.682 100.8C328.389 101.2 328.082 101.58 327.762 101.94C327.455 102.287 327.182 102.553 326.942 102.74C326.515 103.1 326.075 103.28 325.622 103.28ZM332.067 94.84C332 94.84 331.927 94.8267 331.847 94.8C331.767 94.7733 331.727 94.7133 331.727 94.62C331.727 94.5533 331.747 94.4933 331.787 94.44C331.894 94.24 332.087 94.0667 332.367 93.92C332.66 93.7733 332.88 93.7 333.027 93.7C333.094 93.7 333.167 93.72 333.247 93.76C333.327 93.7867 333.367 93.8467 333.367 93.94C333.367 94.1667 333.227 94.3733 332.947 94.56C332.68 94.7467 332.387 94.84 332.067 94.84ZM329.827 103.02C329.374 103.02 329.014 102.893 328.747 102.64C328.48 102.387 328.347 102.033 328.347 101.58C328.347 101.313 328.374 101.053 328.427 100.8C328.48 100.533 328.554 100.273 328.647 100.02C328.7 99.8733 328.807 99.6333 328.967 99.3C329.14 98.9533 329.34 98.5933 329.567 98.22C329.794 97.8333 330.014 97.5067 330.227 97.24C330.44 96.9733 330.627 96.84 330.787 96.84C330.854 96.84 330.94 96.8667 331.047 96.92C331.167 96.96 331.227 97.0267 331.227 97.12C331.227 97.1733 331.2 97.24 331.147 97.32C330.84 97.6667 330.52 98.08 330.187 98.56C329.854 99.04 329.574 99.54 329.347 100.06C329.12 100.58 329.007 101.08 329.007 101.56C329.007 102.173 329.3 102.48 329.887 102.48C330.287 102.48 330.687 102.287 331.087 101.9C331.5 101.513 331.954 100.993 332.447 100.34C332.594 100.153 332.72 99.9733 332.827 99.8C332.947 99.6133 333.054 99.4533 333.147 99.32C333.24 99.2267 333.34 99.18 333.447 99.18C333.607 99.18 333.687 99.24 333.687 99.36C333.687 99.5067 333.58 99.74 333.367 100.06C333.154 100.38 332.914 100.713 332.647 101.06C332.127 101.7 331.674 102.187 331.287 102.52C330.9 102.853 330.414 103.02 329.827 103.02ZM334.767 103.2C334.074 103.2 333.554 102.973 333.207 102.52C332.861 102.067 332.687 101.567 332.687 101.02C332.687 100.673 332.741 100.34 332.847 100.02C332.954 99.6867 333.094 99.3733 333.267 99.08C333.427 98.7867 333.641 98.46 333.907 98.1C334.174 97.74 334.481 97.3933 334.827 97.06C335.174 96.7267 335.547 96.4533 335.947 96.24C336.347 96.0267 336.767 95.92 337.207 95.92C337.581 95.92 337.854 96.0333 338.027 96.26C338.214 96.4867 338.307 96.7467 338.307 97.04C338.307 97.1333 338.281 97.28 338.227 97.48C338.174 97.68 338.101 97.8867 338.007 98.1C337.927 98.3133 337.827 98.5 337.707 98.66C337.587 98.8067 337.454 98.88 337.307 98.88C337.227 98.88 337.154 98.8533 337.087 98.8C337.021 98.7333 336.987 98.6667 336.987 98.6C336.987 98.56 337.041 98.4667 337.147 98.32C337.254 98.1733 337.361 97.9933 337.467 97.78C337.574 97.5667 337.627 97.34 337.627 97.1C337.627 96.9533 337.587 96.82 337.507 96.7C337.441 96.58 337.307 96.52 337.107 96.52C336.774 96.52 336.434 96.6267 336.087 96.84C335.754 97.04 335.441 97.3 335.147 97.62C334.854 97.9267 334.594 98.24 334.367 98.56C334.141 98.8667 333.967 99.1333 333.847 99.36C333.714 99.6 333.607 99.8533 333.527 100.12C333.461 100.373 333.427 100.633 333.427 100.9C333.427 101.167 333.467 101.433 333.547 101.7C333.627 101.967 333.767 102.187 333.967 102.36C334.167 102.533 334.447 102.62 334.807 102.62C335.207 102.62 335.594 102.52 335.967 102.32C336.341 102.12 336.654 101.893 336.907 101.64C337.174 101.387 337.387 101.16 337.547 100.96C337.721 100.76 337.894 100.533 338.067 100.28C338.254 100.013 338.487 99.6667 338.767 99.24C338.821 99.1467 338.901 99.1 339.007 99.1C339.194 99.1 339.287 99.2 339.287 99.4C339.287 99.4667 339.274 99.52 339.247 99.56C338.887 100.133 338.487 100.7 338.047 101.26C337.621 101.82 337.134 102.287 336.587 102.66C336.054 103.02 335.447 103.2 334.767 103.2ZM338.593 103.02C338.38 103.02 338.273 102.927 338.273 102.74C338.273 102.713 338.326 102.567 338.433 102.3C338.553 102.033 338.693 101.727 338.853 101.38C339.013 101.033 339.16 100.713 339.293 100.42C339.426 100.113 339.513 99.92 339.553 99.84C339.54 99.7733 339.5 99.64 339.433 99.44C339.38 99.2267 339.353 99.0267 339.353 98.84C339.353 98.6933 339.38 98.5733 339.433 98.48C339.486 98.3733 339.58 98.32 339.713 98.32C339.78 98.32 339.853 98.36 339.933 98.44C340.026 98.52 340.093 98.5733 340.133 98.6C340.24 98.4 340.333 98.2 340.413 98C340.493 97.8 340.58 97.6 340.673 97.4C341.126 96.3467 341.56 95.3267 341.973 94.34C342.386 93.34 342.84 92.32 343.333 91.28C343.4 91.16 343.486 91.0667 343.593 91C343.713 90.9333 343.82 90.9 343.913 90.9C344.113 90.9 344.213 90.9867 344.213 91.16C344.213 91.2667 344.14 91.5067 343.993 91.88C343.86 92.24 343.673 92.6733 343.433 93.18C343.206 93.6867 342.96 94.22 342.693 94.78C342.426 95.3267 342.166 95.86 341.913 96.38C341.66 96.8867 341.44 97.3267 341.253 97.7C341.066 98.0733 340.94 98.3267 340.873 98.46L340.973 98.5C341.373 97.9533 341.813 97.4467 342.293 96.98C342.786 96.5 343.366 96.1067 344.033 95.8C344.446 95.6133 344.82 95.52 345.153 95.52C345.446 95.52 345.68 95.5867 345.853 95.72C346.04 95.8533 346.133 96.0333 346.133 96.26C346.133 96.5267 346 96.8333 345.733 97.18C345.52 97.4467 345.24 97.7 344.893 97.94C344.56 98.18 344.22 98.3867 343.873 98.56C343.526 98.7333 343.213 98.8667 342.933 98.96C342.64 99.0533 342.346 99.1267 342.053 99.18C341.773 99.2333 341.48 99.2867 341.173 99.34C341.026 99.3533 340.886 99.42 340.753 99.54C340.633 99.6467 340.56 99.7533 340.533 99.86C340.613 100.18 340.76 100.54 340.973 100.94C341.186 101.34 341.46 101.687 341.793 101.98C342.126 102.26 342.513 102.4 342.953 102.4C343.393 102.4 343.786 102.247 344.133 101.94C344.493 101.633 344.833 101.247 345.153 100.78C345.486 100.3 345.833 99.8133 346.193 99.32C346.26 99.24 346.346 99.2 346.453 99.2H346.493C346.626 99.2 346.693 99.3 346.693 99.5C346.693 99.5533 346.673 99.6133 346.633 99.68C346.486 99.9067 346.293 100.2 346.053 100.56C345.813 100.92 345.533 101.287 345.213 101.66C344.906 102.02 344.56 102.327 344.173 102.58C343.786 102.833 343.38 102.96 342.953 102.96C342.446 102.96 341.993 102.847 341.593 102.62C341.206 102.393 340.88 102.1 340.613 101.74C340.36 101.367 340.173 100.987 340.053 100.6C339.853 100.973 339.666 101.353 339.493 101.74C339.333 102.127 339.14 102.493 338.913 102.84C338.886 102.88 338.84 102.92 338.773 102.96C338.72 103 338.66 103.02 338.593 103.02ZM341.693 98.66C341.986 98.62 342.326 98.5467 342.713 98.44C343.113 98.32 343.506 98.1667 343.893 97.98C344.28 97.7933 344.6 97.5733 344.853 97.32C344.986 97.1867 345.1 97.04 345.193 96.88C345.286 96.7067 345.333 96.5533 345.333 96.42C345.333 96.22 345.233 96.12 345.033 96.12C344.833 96.12 344.506 96.2467 344.053 96.5C343.573 96.78 343.133 97.1067 342.733 97.48C342.346 97.84 342 98.2333 341.693 98.66ZM356.131 104.86C355.038 104.86 354.071 104.633 353.231 104.18C352.405 103.727 351.751 103.12 351.271 102.36C350.805 101.587 350.571 100.74 350.571 99.82C350.571 99.14 350.685 98.46 350.911 97.78C351.138 97.0867 351.445 96.42 351.831 95.78C352.218 95.14 352.651 94.5667 353.131 94.06C353.078 93.94 353.038 93.82 353.011 93.7C352.985 93.5667 352.971 93.44 352.971 93.32V93.24C352.971 93.1333 352.985 93.04 353.011 92.96C353.051 92.8667 353.138 92.82 353.271 92.82C353.378 92.82 353.465 92.8467 353.531 92.9C353.611 92.9533 353.651 93.0267 353.651 93.12C353.651 93.2 353.645 93.28 353.631 93.36C353.631 93.4267 353.631 93.5 353.631 93.58C354.671 92.58 355.891 91.7467 357.291 91.08C358.705 90.4 360.178 89.9533 361.711 89.74C361.911 89.7133 362.111 89.6933 362.311 89.68C362.511 89.6667 362.711 89.66 362.911 89.66C363.445 89.66 363.978 89.7333 364.511 89.88C365.058 90.0267 365.511 90.26 365.871 90.58C366.245 90.9 366.431 91.3333 366.431 91.88C366.431 92.1867 366.365 92.4867 366.231 92.78C366.098 93.0733 365.925 93.34 365.711 93.58C365.178 94.2067 364.498 94.7067 363.671 95.08C362.845 95.4533 361.958 95.72 361.011 95.88C360.078 96.0267 359.185 96.1 358.331 96.1C357.811 96.1 357.245 96.0467 356.631 95.94C356.031 95.82 355.451 95.6467 354.891 95.42C354.345 95.18 353.891 94.8867 353.531 94.54C352.891 95.2867 352.351 96.1067 351.911 97C351.471 97.8933 351.251 98.8133 351.251 99.76C351.251 100.587 351.458 101.34 351.871 102.02C352.285 102.7 352.858 103.233 353.591 103.62C354.338 104.02 355.198 104.22 356.171 104.22C356.905 104.22 357.671 104.08 358.471 103.8C359.271 103.533 360.091 103.04 360.931 102.32C361.785 101.6 362.638 100.587 363.491 99.28C363.531 99.2133 363.605 99.1667 363.711 99.14C363.925 99.14 364.031 99.2333 364.031 99.42C364.031 99.4733 364.011 99.5333 363.971 99.6C363.425 100.573 362.765 101.46 361.991 102.26C361.231 103.047 360.358 103.673 359.371 104.14C358.398 104.62 357.318 104.86 356.131 104.86ZM358.331 95.52C359.091 95.52 359.898 95.46 360.751 95.34C361.605 95.2067 362.418 94.9867 363.191 94.68C363.965 94.3733 364.598 93.9533 365.091 93.42C365.278 93.2067 365.431 92.9733 365.551 92.72C365.685 92.4667 365.751 92.2067 365.751 91.94C365.751 91.5 365.605 91.16 365.311 90.92C365.018 90.6667 364.658 90.4867 364.231 90.38C363.805 90.2733 363.378 90.22 362.951 90.22C362.778 90.22 362.598 90.2267 362.411 90.24C362.225 90.2533 362.038 90.2733 361.851 90.3C360.358 90.5133 358.911 90.9667 357.511 91.66C356.111 92.34 354.918 93.1733 353.931 94.16C354.198 94.48 354.591 94.74 355.111 94.94C355.645 95.14 356.205 95.2867 356.791 95.38C357.378 95.4733 357.891 95.52 358.331 95.52ZM364.579 103.46C364.219 103.46 363.933 103.367 363.719 103.18C363.506 102.993 363.346 102.767 363.239 102.5C363.146 102.22 363.099 101.96 363.099 101.72C363.099 101.4 363.159 101.047 363.279 100.66C363.399 100.26 363.506 99.9867 363.599 99.84C363.599 99.8 363.593 99.76 363.579 99.72C363.579 99.6667 363.579 99.62 363.579 99.58C363.579 99.22 363.633 98.8467 363.739 98.46C363.859 98.0067 364.073 97.5933 364.379 97.22C364.686 96.8333 365.066 96.52 365.519 96.28C365.986 96.04 366.493 95.92 367.039 95.92C367.679 95.92 368.173 96.0933 368.519 96.44C368.866 96.7733 369.039 97.2133 369.039 97.76C369.039 98.52 368.899 99.1733 368.619 99.72C368.353 100.267 368.066 100.793 367.759 101.3C367.706 101.407 367.659 101.493 367.619 101.56C367.579 101.627 367.619 101.66 367.739 101.66C368.126 101.66 368.506 101.5 368.879 101.18C369.253 100.86 369.726 100.253 370.299 99.36C370.339 99.2933 370.379 99.24 370.419 99.2C370.459 99.16 370.519 99.14 370.599 99.14H370.639C370.786 99.14 370.873 99.2267 370.899 99.4C370.899 99.44 370.886 99.4867 370.859 99.54C370.526 100.127 370.186 100.633 369.839 101.06C369.506 101.487 369.106 101.813 368.639 102.04C368.173 102.253 367.586 102.367 366.879 102.38C366.599 102.647 366.253 102.893 365.839 103.12C365.439 103.347 365.019 103.46 364.579 103.46ZM366.499 101.62H366.699C366.979 101.287 367.246 100.907 367.499 100.48C367.766 100.053 367.979 99.6133 368.139 99.16C368.299 98.6933 368.379 98.2533 368.379 97.84C368.379 97.4533 368.279 97.1267 368.079 96.86C367.879 96.58 367.533 96.44 367.039 96.44C366.706 96.44 366.379 96.5133 366.059 96.66C365.753 96.7933 365.486 96.96 365.259 97.16L365.319 97.24C365.346 97.2267 365.386 97.22 365.439 97.22C365.519 97.22 365.593 97.2533 365.659 97.32C365.726 97.3733 365.759 97.4333 365.759 97.5C365.759 97.54 365.753 97.5733 365.739 97.6C365.726 97.6267 365.706 97.6533 365.679 97.68C365.453 98.0133 365.233 98.3267 365.019 98.62C364.806 98.9133 364.606 99.2467 364.419 99.62C364.379 99.7133 364.333 99.8067 364.279 99.9C364.386 100.393 364.633 100.807 365.019 101.14C365.419 101.46 365.913 101.62 366.499 101.62ZM364.699 102.9C364.966 102.9 365.233 102.82 365.499 102.66C365.766 102.487 365.993 102.327 366.179 102.18C365.166 102.073 364.419 101.627 363.939 100.84C363.926 100.933 363.899 101.073 363.859 101.26C363.819 101.447 363.799 101.633 363.799 101.82C363.799 102.087 363.859 102.333 363.979 102.56C364.099 102.787 364.339 102.9 364.699 102.9ZM370.615 105.28C370.388 105.28 370.275 105.173 370.275 104.96C370.275 104.84 370.295 104.713 370.335 104.58C370.375 104.447 370.402 104.32 370.415 104.2C370.548 103.533 370.722 102.787 370.935 101.96C371.162 101.12 371.415 100.293 371.695 99.48C371.975 98.6533 372.268 97.9333 372.575 97.32C372.455 97.3333 372.282 97.3667 372.055 97.42C371.828 97.46 371.622 97.5267 371.435 97.62C371.248 97.7 371.155 97.8133 371.155 97.96C371.155 98.0533 371.082 98.1333 370.935 98.2C370.788 98.2533 370.662 98.28 370.555 98.28C370.355 98.28 370.255 98.18 370.255 97.98C370.255 97.78 370.348 97.6067 370.535 97.46C370.735 97.3133 370.975 97.1867 371.255 97.08C371.548 96.96 371.835 96.8667 372.115 96.8C372.408 96.7333 372.642 96.6867 372.815 96.66C373.042 96.18 373.308 95.6333 373.615 95.02C373.935 94.3933 374.302 93.7733 374.715 93.16C375.128 92.5333 375.582 91.98 376.075 91.5C376.582 91.0067 377.135 90.66 377.735 90.46C377.962 90.38 378.202 90.34 378.455 90.34C378.962 90.34 379.308 90.4533 379.495 90.68C379.695 90.8933 379.795 91.1333 379.795 91.4C379.795 91.6533 379.728 91.8867 379.595 92.1C379.462 92.3 379.315 92.4 379.155 92.4C379.062 92.4 378.982 92.3667 378.915 92.3C378.848 92.22 378.835 92.1467 378.875 92.08C379.022 91.8533 379.095 91.6333 379.095 91.42C379.095 91.2733 379.042 91.1533 378.935 91.06C378.842 90.9667 378.682 90.92 378.455 90.92C378.282 90.92 378.122 90.9467 377.975 91C377.455 91.1733 376.968 91.48 376.515 91.92C376.075 92.36 375.668 92.86 375.295 93.42C374.935 93.9667 374.615 94.52 374.335 95.08C374.055 95.6267 373.822 96.1133 373.635 96.54C374.315 96.4333 375.075 96.3533 375.915 96.3C376.768 96.2333 377.602 96.1867 378.415 96.16C378.642 95.6667 378.908 95.1333 379.215 94.56C379.535 93.9733 379.888 93.4067 380.275 92.86C380.662 92.3 381.088 91.8067 381.555 91.38C382.035 90.9533 382.548 90.6467 383.095 90.46C383.322 90.38 383.562 90.34 383.815 90.34C384.322 90.34 384.668 90.4533 384.855 90.68C385.055 90.8933 385.155 91.1333 385.155 91.4C385.155 91.6533 385.088 91.8867 384.955 92.1C384.822 92.3 384.675 92.4 384.515 92.4C384.422 92.4 384.342 92.3667 384.275 92.3C384.208 92.22 384.195 92.1467 384.235 92.08C384.382 91.8533 384.455 91.6333 384.455 91.42C384.455 91.2733 384.402 91.1533 384.295 91.06C384.202 90.9667 384.042 90.92 383.815 90.92C383.642 90.92 383.482 90.9467 383.335 91C382.548 91.28 381.835 91.84 381.195 92.68C380.555 93.5067 379.902 94.6533 379.235 96.12C379.742 96.12 380.208 96.12 380.635 96.12C381.075 96.1067 381.455 96.1 381.775 96.1H381.835C381.995 96.1 382.075 96.18 382.075 96.34C382.075 96.42 382.055 96.5 382.015 96.58C381.975 96.6467 381.915 96.68 381.835 96.68C381.395 96.68 380.928 96.6867 380.435 96.7C379.955 96.7 379.468 96.7067 378.975 96.72C378.362 98.1333 377.842 99.4467 377.415 100.66C377.002 101.873 376.675 103.087 376.435 104.3C376.422 104.42 376.402 104.54 376.375 104.66C376.348 104.78 376.322 104.9 376.295 105.02C376.255 105.193 376.148 105.28 375.975 105.28C375.748 105.28 375.635 105.173 375.635 104.96C375.635 104.84 375.655 104.713 375.695 104.58C375.735 104.447 375.762 104.32 375.775 104.2C375.948 103.36 376.162 102.493 376.415 101.6C376.668 100.707 376.942 99.8467 377.235 99.02C377.528 98.18 377.828 97.4267 378.135 96.76C377.268 96.8 376.415 96.8533 375.575 96.92C374.748 96.9867 374.002 97.0733 373.335 97.18C372.868 98.3533 372.435 99.5267 372.035 100.7C371.635 101.873 371.315 103.073 371.075 104.3C371.062 104.42 371.042 104.54 371.015 104.66C370.988 104.78 370.962 104.9 370.935 105.02C370.895 105.193 370.788 105.28 370.615 105.28ZM382.438 103.2C381.744 103.2 381.258 103 380.978 102.6C380.711 102.187 380.578 101.707 380.578 101.16C380.578 100.76 380.678 100.287 380.878 99.74C381.078 99.18 381.351 98.6333 381.698 98.1C382.058 97.5667 382.471 97.1267 382.938 96.78C383.404 96.42 383.904 96.24 384.438 96.24C384.784 96.24 385.058 96.34 385.258 96.54C385.471 96.7267 385.578 96.9667 385.578 97.26C385.578 97.82 385.398 98.36 385.038 98.88C384.678 99.4 384.211 99.8267 383.638 100.16C383.064 100.493 382.451 100.66 381.798 100.66C381.718 100.66 381.638 100.66 381.558 100.66C381.478 100.647 381.398 100.633 381.318 100.62C381.278 100.793 381.258 100.993 381.258 101.22C381.258 101.567 381.338 101.887 381.498 102.18C381.671 102.473 381.998 102.62 382.478 102.62C382.878 102.62 383.264 102.52 383.638 102.32C384.011 102.12 384.324 101.893 384.578 101.64C384.831 101.387 385.044 101.16 385.218 100.96C385.391 100.76 385.571 100.533 385.758 100.28C385.944 100.013 386.178 99.6667 386.458 99.24C386.511 99.1467 386.591 99.1 386.698 99.1C386.884 99.1 386.978 99.2 386.978 99.4C386.978 99.4667 386.964 99.52 386.938 99.56C386.578 100.173 386.178 100.76 385.738 101.32C385.298 101.867 384.804 102.32 384.258 102.68C383.724 103.027 383.118 103.2 382.438 103.2ZM381.938 100.04C382.444 100.04 382.918 99.9067 383.358 99.64C383.811 99.36 384.178 99.0133 384.458 98.6C384.751 98.1867 384.898 97.7667 384.898 97.34C384.898 97.1933 384.858 97.0733 384.778 96.98C384.711 96.8867 384.591 96.84 384.418 96.84C384.071 96.84 383.738 96.96 383.418 97.2C383.098 97.4267 382.804 97.72 382.538 98.08C382.284 98.4267 382.064 98.7733 381.878 99.12C381.704 99.4667 381.578 99.76 381.498 100C381.564 100.013 381.631 100.027 381.698 100.04C381.778 100.04 381.858 100.04 381.938 100.04ZM387.809 103.2C387.116 103.2 386.629 103 386.349 102.6C386.082 102.187 385.949 101.707 385.949 101.16C385.949 100.76 386.049 100.287 386.249 99.74C386.449 99.18 386.722 98.6333 387.069 98.1C387.429 97.5667 387.842 97.1267 388.309 96.78C388.776 96.42 389.276 96.24 389.809 96.24C390.156 96.24 390.429 96.34 390.629 96.54C390.842 96.7267 390.949 96.9667 390.949 97.26C390.949 97.82 390.769 98.36 390.409 98.88C390.049 99.4 389.582 99.8267 389.009 100.16C388.436 100.493 387.822 100.66 387.169 100.66C387.089 100.66 387.009 100.66 386.929 100.66C386.849 100.647 386.769 100.633 386.689 100.62C386.649 100.793 386.629 100.993 386.629 101.22C386.629 101.567 386.709 101.887 386.869 102.18C387.042 102.473 387.369 102.62 387.849 102.62C388.249 102.62 388.636 102.52 389.009 102.32C389.382 102.12 389.696 101.893 389.949 101.64C390.202 101.387 390.416 101.16 390.589 100.96C390.762 100.76 390.942 100.533 391.129 100.28C391.316 100.013 391.549 99.6667 391.829 99.24C391.882 99.1467 391.962 99.1 392.069 99.1C392.256 99.1 392.349 99.2 392.349 99.4C392.349 99.4667 392.336 99.52 392.309 99.56C391.949 100.173 391.549 100.76 391.109 101.32C390.669 101.867 390.176 102.32 389.629 102.68C389.096 103.027 388.489 103.2 387.809 103.2ZM387.309 100.04C387.816 100.04 388.289 99.9067 388.729 99.64C389.182 99.36 389.549 99.0133 389.829 98.6C390.122 98.1867 390.269 97.7667 390.269 97.34C390.269 97.1933 390.229 97.0733 390.149 96.98C390.082 96.8867 389.962 96.84 389.789 96.84C389.442 96.84 389.109 96.96 388.789 97.2C388.469 97.4267 388.176 97.72 387.909 98.08C387.656 98.4267 387.436 98.7733 387.249 99.12C387.076 99.4667 386.949 99.76 386.869 100C386.936 100.013 387.002 100.027 387.069 100.04C387.149 100.04 387.229 100.04 387.309 100.04Z" fill="white"/>
<path d="M134.562 175C131.984 175 129.602 174.355 127.414 173.066C125.227 171.777 123.488 170.039 122.199 167.852C120.91 165.664 120.266 163.281 120.266 160.703C120.266 158.125 120.91 155.742 122.199 153.555C123.488 151.367 125.227 149.639 127.414 148.369C129.602 147.08 131.984 146.436 134.562 146.436H148.83V160.703C148.83 163.281 148.186 165.674 146.896 167.881C145.627 170.068 143.898 171.807 141.711 173.096C139.523 174.365 137.141 175 134.562 175ZM134.562 164.395C135.578 164.395 136.438 164.033 137.141 163.311C137.863 162.588 138.225 161.719 138.225 160.703V157.012H134.562C133.898 157.012 133.283 157.178 132.717 157.51C132.15 157.842 131.701 158.291 131.369 158.857C131.037 159.424 130.871 160.039 130.871 160.703C130.871 161.719 131.232 162.588 131.955 163.311C132.678 164.033 133.547 164.395 134.562 164.395ZM152.551 175C150.832 175 149.201 174.707 147.658 174.121C146.135 173.535 144.758 172.705 143.527 171.631L140.393 166.533L143 160.82L148.83 160.674C148.83 161.709 149.191 162.588 149.914 163.311C150.637 164.033 151.516 164.395 152.551 164.395L154.396 169.727L152.551 175ZM150.646 169.727L152.551 164.395H156.389L156.154 163.545C155.998 163.037 155.871 162.568 155.773 162.139C155.676 161.689 155.627 161.211 155.627 160.703C155.627 158.125 156.271 155.742 157.561 153.555C158.85 151.367 160.598 149.639 162.805 148.369C165.012 147.08 167.404 146.436 169.982 146.436H184.25V175H152.551L150.646 169.727ZM173.645 164.395V157.041H169.982C169.318 157.041 168.703 157.207 168.137 157.539C167.57 157.871 167.111 158.32 166.76 158.887C166.428 159.434 166.262 160.039 166.262 160.703C166.262 161.367 166.428 161.982 166.76 162.549C167.111 163.115 167.57 163.564 168.137 163.896C168.703 164.229 169.318 164.395 169.982 164.395H173.645ZM167.668 132.227H175.93V140.312H167.668V132.227ZM204.055 175C201.477 175 199.094 174.355 196.906 173.066C194.719 171.777 192.98 170.039 191.691 167.852C190.402 165.664 189.758 163.281 189.758 160.703V134.219L200.334 131.582V160.703C200.334 161.719 200.695 162.588 201.418 163.311C202.141 164.033 203.02 164.395 204.055 164.395L205.93 169.727L204.055 175ZM202.15 169.727L204.055 164.395H247.062C247.727 164.395 248.342 164.229 248.908 163.896C249.475 163.564 249.924 163.115 250.256 162.549C250.588 161.982 250.754 161.367 250.754 160.703C250.754 160.039 250.588 159.434 250.256 158.887C249.924 158.32 249.475 157.871 248.908 157.539C248.342 157.207 247.727 157.041 247.062 157.041H207.043V146.436L233.117 131.67L238.42 139.639L226.496 146.436H247.062C249.641 146.436 252.023 147.08 254.211 148.369C256.418 149.639 258.166 151.367 259.455 153.555C260.744 155.742 261.389 158.125 261.389 160.703C261.389 163.281 260.744 165.664 259.455 167.852C258.166 170.039 256.418 171.777 254.211 173.066C252.023 174.355 249.641 175 247.062 175H204.055L202.15 169.727ZM287.375 175C284.797 175 282.414 174.355 280.227 173.066C278.039 171.777 276.301 170.039 275.012 167.852C273.723 165.664 273.078 163.281 273.078 160.703V149.248L283.684 146.611V160.703C283.684 161.719 284.045 162.588 284.768 163.311C285.49 164.033 286.359 164.395 287.375 164.395H330.441C331.105 164.395 331.721 164.229 332.287 163.896C332.854 163.564 333.303 163.115 333.635 162.549C333.967 161.982 334.133 161.367 334.133 160.703C334.133 160.039 333.967 159.434 333.635 158.887C333.303 158.32 332.854 157.871 332.287 157.539C331.721 157.207 331.105 157.041 330.441 157.041H290.422V146.436L316.496 131.67L321.828 139.639L309.816 146.436H330.441C333.02 146.436 335.402 147.08 337.59 148.369C339.797 149.639 341.545 151.367 342.834 153.555C344.123 155.742 344.768 158.125 344.768 160.703C344.768 163.281 344.123 165.664 342.834 167.852C341.545 170.039 339.797 171.777 337.59 173.066C335.402 174.355 333.02 175 330.441 175H287.375ZM348.43 175C346.73 175 345.109 174.707 343.566 174.121C342.043 173.535 340.666 172.705 339.436 171.631L336.359 166.562L338.938 160.85L344.768 160.703C344.768 161.719 345.119 162.588 345.822 163.311C346.545 164.033 347.414 164.395 348.43 164.395L350.305 169.727L348.43 175ZM348.195 175L346.525 169.727L348.312 164.395H348.43C349.445 164.395 350.305 164.043 351.008 163.34C351.711 162.617 352.062 161.738 352.062 160.703V149.248L362.727 146.611V160.703C362.727 163.281 362.082 165.664 360.793 167.852C359.504 170.039 357.766 171.777 355.578 173.066C353.391 174.355 351.008 175 348.43 175H348.195ZM358.215 189.033H341.281V180.977H358.215V189.033ZM362.58 182.324L368.586 178.311V149.307L379.221 146.611V183.965L368.469 191.172L362.58 182.324ZM385.578 134.219L396.184 131.582V175H385.578V134.219Z" fill="white"/>
<path d="M59.6605 229.96C59.3005 230.693 59.0205 231.407 58.8205 232.1C58.6338 232.78 58.5405 233.48 58.5405 234.2C58.5405 234.987 58.6671 235.68 58.9205 236.28C59.1738 236.893 59.5671 237.373 60.1005 237.72C60.6338 238.067 61.3138 238.24 62.1405 238.24H64.2805C65.1871 238.24 65.8938 238.133 66.4005 237.92C66.9071 237.72 67.2671 237.393 67.4805 236.94C67.6938 236.5 67.8005 235.893 67.8005 235.12V228.84H69.3605V235.12C69.3605 236.667 68.9538 237.873 68.1405 238.74C67.3271 239.607 66.0405 240.04 64.2805 240.04H62.1405C61.0338 240.04 60.0938 239.767 59.3205 239.22C58.5471 238.673 57.9605 237.953 57.5605 237.06C57.1738 236.167 56.9805 235.213 56.9805 234.2C56.9805 233.307 57.1071 232.44 57.3605 231.6C57.6138 230.76 57.9405 229.973 58.3405 229.24L59.6605 229.96ZM62.6005 228.84C62.9471 228.813 63.3005 228.793 63.6605 228.78C64.0205 228.767 64.3805 228.753 64.7405 228.74C64.7405 229.193 64.7405 229.527 64.7405 229.74C64.7405 229.953 64.7405 230.28 64.7405 230.72C64.2471 230.747 63.8805 230.767 63.6405 230.78C63.4138 230.793 63.0671 230.807 62.6005 230.82C62.6005 230.367 62.6005 230.033 62.6005 229.82C62.6005 229.607 62.6005 229.28 62.6005 228.84ZM72.1555 222.02H73.7155L73.7355 235H72.1755L72.1555 222.02ZM79.6884 228.84V234.48C79.6884 235.68 79.4818 236.693 79.0684 237.52C78.6684 238.347 78.0751 238.973 77.2884 239.4C76.5018 239.827 75.5418 240.04 74.4084 240.04H73.1484V238.24H74.4084C75.3018 238.24 76.0151 238.113 76.5484 237.86C77.0951 237.607 77.4951 237.207 77.7484 236.66C78.0018 236.113 78.1284 235.387 78.1284 234.48V228.84H79.6884ZM79.6884 231.68C79.6884 232.227 79.8218 232.62 80.0884 232.86C80.3551 233.087 80.7751 233.2 81.3484 233.2H81.5484L81.6684 234.12L81.5484 235H81.3484C80.8818 235 80.4551 234.9 80.0684 234.7C79.6818 234.5 79.3618 234.153 79.1084 233.66C78.8684 233.167 78.7484 232.507 78.7484 231.68H79.6884ZM81.7492 233.2H84.4492C85.2226 233.2 85.7626 233.067 86.0692 232.8C86.3892 232.533 86.5359 232.16 86.5092 231.68C86.4826 231.293 86.4026 230.747 86.2692 230.04C86.1492 229.333 86.0226 228.673 85.8892 228.06L87.4092 227.66C87.5559 228.273 87.6959 228.973 87.8292 229.76C87.9626 230.533 88.0426 231.16 88.0692 231.64C88.0959 232.213 87.9759 232.76 87.7092 233.28C87.4559 233.787 87.0492 234.2 86.4892 234.52C85.9426 234.84 85.2626 235 84.4492 235H81.7492V233.2ZM81.4092 235V233.2H81.9292L82.0292 234.12L81.9292 235H81.4092ZM81.9292 238.2C82.2759 238.187 82.5359 238.173 82.7092 238.16C82.8826 238.147 83.1426 238.133 83.4892 238.12C83.9026 238.107 84.3159 238.087 84.7292 238.06C84.7426 238.327 84.7559 238.553 84.7692 238.74C84.7826 238.94 84.7826 239.167 84.7692 239.42C84.7692 239.633 84.7559 239.847 84.7292 240.06C84.0892 240.087 83.6159 240.107 83.3092 240.12C83.0026 240.147 82.5426 240.173 81.9292 240.2C81.9292 239.747 81.9292 239.407 81.9292 239.18C81.9292 238.967 81.9292 238.64 81.9292 238.2ZM84.6892 238.06C85.3292 238.033 85.8026 238.007 86.1092 237.98C86.4159 237.967 86.8759 237.947 87.4892 237.92C87.4892 238.373 87.4892 238.707 87.4892 238.92C87.4892 239.147 87.4892 239.48 87.4892 239.92C86.8492 239.947 86.3759 239.967 86.0692 239.98C85.7626 240.007 85.3026 240.033 84.6892 240.06C84.6759 239.833 84.6626 239.62 84.6492 239.42C84.6359 239.167 84.6359 238.94 84.6492 238.74C84.6626 238.553 84.6759 238.327 84.6892 238.06ZM90.8664 222.02H92.4264L92.4464 235H90.8864L90.8664 222.02ZM105.392 228.84V234.48C105.392 235.68 105.185 236.693 104.772 237.52C104.372 238.347 103.778 238.973 102.992 239.4C102.205 239.827 101.245 240.04 100.112 240.04H98.8516V238.24H100.112C101.005 238.24 101.718 238.113 102.252 237.86C102.798 237.607 103.198 237.207 103.452 236.66C103.705 236.113 103.832 235.387 103.832 234.48V228.84H105.392ZM112.613 226.6C113.093 227.347 113.446 227.907 113.673 228.28C113.913 228.64 114.266 229.18 114.733 229.9C115.106 230.473 115.313 231.113 115.353 231.82C115.406 232.527 115.273 233.107 114.953 233.56C114.566 234.107 114.1 234.487 113.553 234.7C113.006 234.9 112.406 235 111.753 235H110.673C109.953 235 109.3 234.9 108.713 234.7C108.14 234.487 107.666 234.247 107.293 233.98L108.113 232.46L108.213 232.52C108.52 232.707 108.86 232.867 109.233 233C109.606 233.133 110.086 233.2 110.673 233.2H111.753C112.233 233.2 112.626 233.153 112.933 233.06C113.253 232.953 113.5 232.773 113.673 232.52C113.82 232.32 113.873 232.093 113.833 231.84C113.793 231.573 113.653 231.247 113.413 230.86C112.16 228.887 111.146 227.327 110.373 226.18L111.693 225.18L112.613 226.6ZM125.051 229.96C124.691 230.693 124.411 231.407 124.211 232.1C124.024 232.78 123.931 233.48 123.931 234.2C123.931 234.987 124.058 235.68 124.311 236.28C124.564 236.893 124.958 237.373 125.491 237.72C126.024 238.067 126.704 238.24 127.531 238.24H129.671C130.578 238.24 131.284 238.133 131.791 237.92C132.298 237.72 132.658 237.393 132.871 236.94C133.084 236.5 133.191 235.893 133.191 235.12V228.84H134.751V235.12C134.751 236.667 134.344 237.873 133.531 238.74C132.718 239.607 131.431 240.04 129.671 240.04H127.531C126.424 240.04 125.484 239.767 124.711 239.22C123.938 238.673 123.351 237.953 122.951 237.06C122.564 236.167 122.371 235.213 122.371 234.2C122.371 233.307 122.498 232.44 122.751 231.6C123.004 230.76 123.331 229.973 123.731 229.24L125.051 229.96ZM127.991 228.84C128.338 228.813 128.691 228.793 129.051 228.78C129.411 228.767 129.771 228.753 130.131 228.74C130.131 229.193 130.131 229.527 130.131 229.74C130.131 229.953 130.131 230.28 130.131 230.72C129.638 230.747 129.271 230.767 129.031 230.78C128.804 230.793 128.458 230.807 127.991 230.82C127.991 230.367 127.991 230.033 127.991 229.82C127.991 229.607 127.991 229.28 127.991 228.84ZM137.546 222.02H139.106L139.126 235H137.566L137.546 222.02ZM145.079 228.84V234.48C145.079 235.68 144.872 236.693 144.459 237.52C144.059 238.347 143.466 238.973 142.679 239.4C141.892 239.827 140.932 240.04 139.799 240.04H138.539V238.24H139.799C140.692 238.24 141.406 238.113 141.939 237.86C142.486 237.607 142.886 237.207 143.139 236.66C143.392 236.113 143.519 235.387 143.519 234.48V228.84H145.079ZM149.38 238.26C150.314 238.26 151.034 238.147 151.54 237.92C152.06 237.707 152.42 237.373 152.62 236.92C152.82 236.467 152.92 235.867 152.92 235.12V231.2C152.92 230.387 152.734 229.753 152.36 229.3C151.987 228.833 151.434 228.6 150.7 228.6C150.02 228.6 149.487 228.84 149.1 229.32C148.727 229.787 148.54 230.413 148.54 231.2C148.54 231.933 148.714 232.453 149.06 232.76C149.407 233.053 149.96 233.2 150.72 233.2H153.28H153.7H155.6L155.72 234.12L155.6 235H150.72C149.6 235 148.694 234.667 148 234C147.32 233.333 146.98 232.4 146.98 231.2C146.98 230.387 147.134 229.647 147.44 228.98C147.76 228.313 148.2 227.787 148.76 227.4C149.334 227.013 149.98 226.82 150.7 226.82C151.46 226.82 152.127 227.007 152.7 227.38C153.274 227.753 153.714 228.273 154.02 228.94C154.327 229.593 154.48 230.347 154.48 231.2V235.12C154.48 236.107 154.307 236.967 153.96 237.7C153.627 238.433 153.08 239.007 152.32 239.42C151.574 239.847 150.594 240.06 149.38 240.06H147.24V238.26H149.38ZM161.092 228.84V231.68C161.092 232.227 161.226 232.62 161.492 232.86C161.759 233.087 162.179 233.2 162.752 233.2H163.772L163.872 234.14L163.772 235H162.752C162.286 235 161.799 234.88 161.292 234.64C160.799 234.387 160.379 233.993 160.032 233.46C159.699 232.927 159.532 232.253 159.532 231.44V228.84H161.092ZM160.812 231.78C160.812 232.5 160.646 233.1 160.312 233.58C159.992 234.06 159.579 234.42 159.072 234.66C158.566 234.887 158.046 235 157.512 235H155.392V233.2H157.512C158.192 233.2 158.699 233.06 159.032 232.78C159.366 232.5 159.532 232.053 159.532 231.44L160.812 231.78ZM156.412 224.72C156.759 224.707 157.019 224.693 157.192 224.68C157.366 224.667 157.626 224.653 157.972 224.64C158.386 224.613 158.799 224.593 159.212 224.58C159.226 224.847 159.239 225.08 159.252 225.28C159.266 225.467 159.266 225.687 159.252 225.94C159.252 226.14 159.239 226.353 159.212 226.58C158.572 226.607 158.099 226.633 157.792 226.66C157.486 226.673 157.026 226.693 156.412 226.72C156.412 226.267 156.412 225.933 156.412 225.72C156.412 225.493 156.412 225.16 156.412 224.72ZM159.172 224.58C159.812 224.553 160.286 224.533 160.592 224.52C160.899 224.493 161.359 224.467 161.972 224.44C161.972 224.893 161.972 225.233 161.972 225.46C161.972 225.673 161.972 226 161.972 226.44C161.332 226.467 160.859 226.493 160.552 226.52C160.246 226.533 159.786 226.553 159.172 226.58C159.159 226.367 159.146 226.153 159.132 225.94C159.119 225.687 159.119 225.467 159.132 225.28C159.146 225.08 159.159 224.847 159.172 224.58ZM163.576 233.2H164.796C165.436 233.2 165.889 233.06 166.156 232.78C166.436 232.5 166.576 232.053 166.576 231.44V228.84H168.136V231.68C168.136 232.213 168.262 232.6 168.516 232.84C168.782 233.067 169.189 233.187 169.736 233.2C170.376 233.187 170.829 233.047 171.096 232.78C171.376 232.5 171.516 232.053 171.516 231.44V228.84H173.076V231.68C173.076 232.213 173.202 232.6 173.456 232.84C173.722 233.067 174.129 233.187 174.676 233.2C175.262 233.187 175.689 233.047 175.956 232.78C176.222 232.5 176.342 232.133 176.316 231.68C176.289 231.293 176.209 230.747 176.076 230.04C175.956 229.333 175.829 228.673 175.696 228.06L177.216 227.66C177.362 228.273 177.502 228.973 177.636 229.76C177.769 230.533 177.849 231.16 177.876 231.64C177.902 232.187 177.796 232.72 177.556 233.24C177.316 233.76 176.949 234.187 176.456 234.52C175.962 234.84 175.369 235 174.676 235C174.249 235 173.809 234.9 173.356 234.7C172.916 234.487 172.536 234.16 172.216 233.72C171.896 234.147 171.529 234.467 171.116 234.68C170.702 234.893 170.242 235 169.736 235C169.296 235 168.849 234.887 168.396 234.66C167.942 234.42 167.569 234.107 167.276 233.72C166.956 234.147 166.582 234.467 166.156 234.68C165.729 234.893 165.276 235 164.796 235H163.576V233.2ZM183.419 228.84V234.48C183.419 235.68 183.212 236.693 182.799 237.52C182.399 238.347 181.806 238.973 181.019 239.4C180.232 239.827 179.272 240.04 178.139 240.04H176.879V238.24H178.139C179.032 238.24 179.746 238.113 180.279 237.86C180.826 237.607 181.226 237.207 181.479 236.66C181.732 236.113 181.859 235.387 181.859 234.48V228.84H183.419ZM192.72 238.24C193.654 238.24 194.374 238.127 194.88 237.9C195.4 237.687 195.76 237.353 195.96 236.9C196.16 236.447 196.26 235.847 196.26 235.1V231.18C196.26 230.367 196.074 229.733 195.7 229.28C195.327 228.813 194.774 228.58 194.04 228.58C193.36 228.58 192.827 228.82 192.44 229.3C192.067 229.767 191.88 230.393 191.88 231.18C191.88 231.913 192.054 232.433 192.4 232.74C192.747 233.033 193.3 233.18 194.06 233.18H196.94V234.98H194.06C192.94 234.98 192.034 234.647 191.34 233.98C190.66 233.313 190.32 232.38 190.32 231.18C190.32 230.367 190.474 229.627 190.78 228.96C191.1 228.293 191.54 227.767 192.1 227.38C192.674 226.993 193.32 226.8 194.04 226.8C194.8 226.8 195.467 226.987 196.04 227.36C196.614 227.72 197.054 228.233 197.36 228.9C197.667 229.567 197.82 230.327 197.82 231.18V235.1C197.82 236.087 197.647 236.947 197.3 237.68C196.967 238.413 196.42 238.987 195.66 239.4C194.914 239.827 193.934 240.04 192.72 240.04H190.58V238.24H192.72ZM212.613 231.04C212.799 231.827 213.166 232.387 213.713 232.72C214.273 233.04 214.926 233.2 215.673 233.2H216.073L216.173 234.1L216.073 235H215.673C214.686 235 213.753 234.733 212.873 234.2C211.993 233.653 211.399 232.747 211.093 231.48C210.559 229.227 210.026 226.973 209.493 224.72L211.013 224.32L212.613 231.04ZM212.033 228.7C212.126 229.54 212.133 230.233 212.053 230.78C211.986 231.327 211.813 231.84 211.533 232.32C211.186 232.92 210.739 233.387 210.193 233.72C209.646 234.04 209.053 234.2 208.413 234.2C207.786 234.2 207.179 234.027 206.593 233.68C206.046 233.36 205.613 232.913 205.293 232.34C204.973 231.753 204.806 231.127 204.793 230.46C204.793 229.793 204.959 229.173 205.293 228.6C205.519 228.2 205.786 227.867 206.093 227.6C206.413 227.32 206.906 227.013 207.573 226.68C208.253 226.333 209.253 225.893 210.573 225.36L211.173 227.04C210.159 227.333 209.339 227.633 208.713 227.94C208.086 228.233 207.619 228.507 207.313 228.76C207.019 229.013 206.799 229.267 206.653 229.52C206.359 230.013 206.279 230.507 206.413 231C206.559 231.48 206.866 231.867 207.333 232.16C207.786 232.44 208.299 232.52 208.873 232.4C209.459 232.267 209.933 231.973 210.293 231.52C210.519 231.24 210.646 230.92 210.673 230.56C210.713 230.187 210.659 229.62 210.513 228.86L212.033 228.7ZM215.88 233.2H219.08H219.2C220.16 233.187 220.86 233.107 221.3 232.96C221.754 232.8 222.054 232.54 222.2 232.18C222.347 231.807 222.42 231.233 222.42 230.46V228.42C222.42 227.807 222.267 227.333 221.96 227C221.667 226.653 221.227 226.48 220.64 226.48C220.094 226.48 219.66 226.66 219.34 227.02C219.02 227.367 218.86 227.833 218.86 228.42C218.86 228.953 219.007 229.353 219.3 229.62C219.594 229.887 220.04 230.02 220.64 230.02H223.24V231.82H220.64C220.027 231.82 219.467 231.68 218.96 231.4C218.454 231.107 218.047 230.707 217.74 230.2C217.447 229.68 217.3 229.087 217.3 228.42C217.3 227.753 217.454 227.133 217.76 226.56C218.067 225.987 218.474 225.533 218.98 225.2C219.5 224.853 220.054 224.68 220.64 224.68C221.28 224.68 221.854 224.853 222.36 225.2C222.867 225.533 223.26 225.987 223.54 226.56C223.834 227.133 223.98 227.753 223.98 228.42V230.46C223.98 231.473 223.834 232.313 223.54 232.98C223.247 233.633 222.74 234.133 222.02 234.48C221.314 234.827 220.334 235 219.08 235H215.88V233.2ZM219.56 220.98C219.907 220.953 220.26 220.933 220.62 220.92C220.98 220.907 221.34 220.893 221.7 220.88C221.7 221.333 221.7 221.667 221.7 221.88C221.7 222.093 221.7 222.42 221.7 222.86C221.207 222.887 220.84 222.907 220.6 222.92C220.374 222.933 220.027 222.947 219.56 222.96C219.56 222.507 219.56 222.173 219.56 221.96C219.56 221.747 219.56 221.42 219.56 220.98ZM230.304 235C229.398 235 228.691 234.833 228.184 234.5C227.678 234.153 227.318 233.673 227.104 233.06C226.904 232.447 226.804 231.687 226.804 230.78L226.784 222.02H228.344L228.364 230.78C228.364 231.5 228.404 232.02 228.484 232.34C228.578 232.66 228.751 232.887 229.004 233.02C229.271 233.14 229.704 233.2 230.304 233.2H230.604L230.704 234.12L230.604 235H230.304ZM239.792 223.02L233.492 225.8L237.132 229.5C237.785 230.153 238.125 230.92 238.152 231.8C238.178 232.68 237.892 233.433 237.292 234.06C236.705 234.687 235.898 235 234.872 235H230.412V233.2H234.872C235.498 233.2 235.965 233.08 236.272 232.84C236.592 232.6 236.725 232.293 236.672 231.92C236.632 231.533 236.412 231.14 236.012 230.74L231.792 226.5L232.272 224.4L239.152 221.38L239.792 223.02ZM249.157 235C248.384 235 247.704 234.827 247.117 234.48C246.53 234.12 246.09 233.64 245.797 233.04C245.504 232.44 245.397 231.793 245.477 231.1C245.544 230.487 245.764 229.407 246.137 227.86L247.597 228.24L247.517 228.6C247.197 229.96 247.017 230.853 246.977 231.28C246.91 231.867 247.064 232.333 247.437 232.68C247.81 233.027 248.384 233.2 249.157 233.2H257.797C258.45 233.2 258.937 233.02 259.257 232.66C259.59 232.3 259.757 231.867 259.757 231.36C259.757 230.773 259.55 229.553 259.137 227.7L260.657 227.3C261.097 229.207 261.317 230.56 261.317 231.36C261.317 231.92 261.177 232.487 260.897 233.06C260.617 233.62 260.21 234.087 259.677 234.46C259.144 234.82 258.517 235 257.797 235H249.157ZM250.677 226.52C251.024 226.507 251.284 226.493 251.457 226.48C251.63 226.467 251.89 226.453 252.237 226.44C252.65 226.413 253.064 226.393 253.477 226.38C253.49 226.647 253.504 226.88 253.517 227.08C253.53 227.267 253.53 227.487 253.517 227.74C253.517 227.94 253.504 228.153 253.477 228.38C252.837 228.407 252.364 228.433 252.057 228.46C251.75 228.473 251.29 228.493 250.677 228.52C250.677 228.067 250.677 227.733 250.677 227.52C250.677 227.293 250.677 226.96 250.677 226.52ZM253.437 226.38C254.077 226.353 254.55 226.333 254.857 226.32C255.164 226.293 255.624 226.267 256.237 226.24C256.237 226.693 256.237 227.033 256.237 227.26C256.237 227.473 256.237 227.8 256.237 228.24C255.597 228.267 255.124 228.293 254.817 228.32C254.51 228.333 254.05 228.353 253.437 228.38C253.424 228.167 253.41 227.953 253.397 227.74C253.384 227.487 253.384 227.267 253.397 227.08C253.41 226.88 253.424 226.647 253.437 226.38ZM264.109 222.02H265.669L265.689 235H264.129L264.109 222.02ZM272.032 228.84V234.48C272.032 235.68 271.826 236.693 271.412 237.52C271.012 238.347 270.419 238.973 269.632 239.4C268.846 239.827 267.886 240.04 266.752 240.04H265.492V238.24H266.752C267.646 238.24 268.359 238.113 268.892 237.86C269.439 237.607 269.839 237.207 270.092 236.66C270.346 236.113 270.472 235.387 270.472 234.48V228.84H272.032ZM272.032 231.68C272.032 232.227 272.166 232.62 272.432 232.86C272.699 233.087 273.119 233.2 273.692 233.2H273.892L274.012 234.12L273.892 235H273.692C273.226 235 272.799 234.9 272.412 234.7C272.026 234.5 271.706 234.153 271.452 233.66C271.212 233.167 271.092 232.507 271.092 231.68H272.032ZM270.072 224.1C270.419 224.073 270.772 224.053 271.132 224.04C271.492 224.027 271.852 224.013 272.212 224C272.212 224.453 272.212 224.787 272.212 225C272.212 225.213 272.212 225.54 272.212 225.98C271.719 226.007 271.352 226.027 271.112 226.04C270.886 226.053 270.539 226.067 270.072 226.08C270.072 225.627 270.072 225.293 270.072 225.08C270.072 224.867 270.072 224.54 270.072 224.1ZM279.393 228.84V231.68C279.393 232.227 279.526 232.62 279.793 232.86C280.06 233.087 280.48 233.2 281.053 233.2H282.073L282.173 234.14L282.073 235H281.053C280.586 235 280.1 234.88 279.593 234.64C279.1 234.387 278.68 233.993 278.333 233.46C278 232.927 277.833 232.253 277.833 231.44V228.84H279.393ZM279.113 231.78C279.113 232.5 278.946 233.1 278.613 233.58C278.293 234.06 277.88 234.42 277.373 234.66C276.866 234.887 276.346 235 275.813 235H273.693V233.2H275.813C276.493 233.2 277 233.06 277.333 232.78C277.666 232.5 277.833 232.053 277.833 231.44L279.113 231.78ZM274.273 238.2C274.62 238.187 274.88 238.173 275.053 238.16C275.226 238.147 275.486 238.133 275.833 238.12C276.246 238.093 276.66 238.073 277.073 238.06C277.086 238.327 277.1 238.553 277.113 238.74C277.126 238.94 277.126 239.167 277.113 239.42C277.113 239.62 277.1 239.833 277.073 240.06C276.433 240.087 275.96 240.107 275.653 240.12C275.346 240.147 274.886 240.173 274.273 240.2C274.273 239.747 274.273 239.407 274.273 239.18C274.273 238.967 274.273 238.64 274.273 238.2ZM277.033 238.06C277.673 238.033 278.146 238.007 278.453 237.98C278.76 237.967 279.22 237.947 279.833 237.92C279.833 238.373 279.833 238.707 279.833 238.92C279.833 239.147 279.833 239.48 279.833 239.92C279.193 239.947 278.72 239.967 278.413 239.98C278.106 240.007 277.646 240.033 277.033 240.06C277.02 239.847 277.006 239.633 276.993 239.42C276.98 239.167 276.98 238.94 276.993 238.74C277.006 238.553 277.02 238.327 277.033 238.06ZM281.877 233.2H284.397H284.857C285.603 233.173 286.263 233.08 286.837 232.92C287.423 232.76 287.897 232.527 288.257 232.22C288.617 231.913 288.83 231.54 288.897 231.1C288.99 230.513 288.957 230.013 288.797 229.6C288.65 229.173 288.39 228.853 288.017 228.64C287.657 228.427 287.23 228.32 286.737 228.32C285.937 228.32 285.357 228.547 284.997 229C284.65 229.453 284.477 230.2 284.477 231.24V235.12C284.477 235.827 284.617 236.4 284.897 236.84C285.19 237.28 285.63 237.607 286.217 237.82C286.803 238.047 287.557 238.18 288.477 238.22V236.82C288.477 236.087 288.63 235.447 288.937 234.9C289.257 234.34 289.657 233.92 290.137 233.64C290.617 233.347 291.103 233.2 291.597 233.2H292.797L292.897 234.1L292.797 235H291.597C291.157 235 290.783 235.147 290.477 235.44C290.183 235.747 290.037 236.207 290.037 236.82V238.46L288.737 240.04C287.617 240.04 286.617 239.86 285.737 239.5C284.857 239.14 284.163 238.587 283.657 237.84C283.163 237.107 282.917 236.2 282.917 235.12V231.24C282.917 230.28 283.07 229.447 283.377 228.74C283.683 228.02 284.123 227.473 284.697 227.1C285.27 226.713 285.95 226.52 286.737 226.52C287.497 226.52 288.183 226.733 288.797 227.16C289.423 227.587 289.89 228.173 290.197 228.92C290.517 229.653 290.603 230.473 290.457 231.38C290.257 232.633 289.577 233.553 288.417 234.14C287.257 234.713 285.917 235 284.397 235H281.877V233.2ZM304.359 235C303.533 235 302.813 234.76 302.199 234.28C301.599 233.787 301.299 233.06 301.299 232.1L302.499 231.52C302.499 232.093 302.659 232.52 302.979 232.8C303.299 233.067 303.759 233.2 304.359 233.2H306.339L306.479 234.1L306.339 235H304.359ZM292.519 233.2H294.999C295.893 233.2 296.726 233.093 297.499 232.88C298.273 232.653 298.986 232.373 299.639 232.04C300.293 231.693 301.113 231.22 302.099 230.62L302.759 230.22L302.719 230.66L301.479 230.14C300.266 229.633 299.293 229.253 298.559 229C297.839 228.733 297.333 228.6 297.039 228.6C296.639 228.6 296.326 228.693 296.099 228.88C295.886 229.053 295.679 229.413 295.479 229.96L293.959 229.48C294.279 228.533 294.706 227.853 295.239 227.44C295.773 227.013 296.373 226.8 297.039 226.8C297.493 226.8 298.186 226.973 299.119 227.32C300.066 227.667 301.379 228.193 303.059 228.9C303.393 229.033 303.719 229.167 304.039 229.3L304.439 231.2L303.379 231.86C302.219 232.593 301.259 233.167 300.499 233.58C299.739 233.993 298.899 234.333 297.979 234.6C297.073 234.867 296.079 235 294.999 235H292.519V233.2ZM298.159 237.58C298.506 237.567 298.859 237.547 299.219 237.52C299.579 237.507 299.939 237.493 300.299 237.48C300.299 237.933 300.299 238.267 300.299 238.48C300.299 238.693 300.299 239.02 300.299 239.46C299.806 239.487 299.439 239.507 299.199 239.52C298.973 239.533 298.626 239.547 298.159 239.56C298.159 239.107 298.159 238.773 298.159 238.56C298.159 238.347 298.159 238.02 298.159 237.58ZM306.134 233.2H308.834C309.608 233.2 310.148 233.067 310.454 232.8C310.774 232.533 310.921 232.16 310.894 231.68C310.868 231.293 310.788 230.747 310.654 230.04C310.534 229.333 310.408 228.673 310.274 228.06L311.794 227.66C311.941 228.273 312.081 228.973 312.214 229.76C312.348 230.533 312.428 231.16 312.454 231.64C312.481 232.213 312.361 232.76 312.094 233.28C311.841 233.787 311.434 234.2 310.874 234.52C310.328 234.84 309.648 235 308.834 235H306.134V233.2ZM307.054 223.44C307.401 223.427 307.661 223.413 307.834 223.4C308.008 223.387 308.268 223.373 308.614 223.36C309.028 223.333 309.441 223.313 309.854 223.3C309.868 223.567 309.881 223.8 309.894 224C309.908 224.187 309.908 224.407 309.894 224.66C309.894 224.86 309.881 225.073 309.854 225.3C309.214 225.327 308.741 225.353 308.434 225.38C308.128 225.393 307.668 225.413 307.054 225.44C307.054 224.987 307.054 224.653 307.054 224.44C307.054 224.213 307.054 223.88 307.054 223.44ZM309.814 223.3C310.454 223.273 310.928 223.253 311.234 223.24C311.541 223.213 312.001 223.187 312.614 223.16C312.614 223.613 312.614 223.953 312.614 224.18C312.614 224.393 312.614 224.72 312.614 225.16C311.974 225.187 311.501 225.213 311.194 225.24C310.888 225.253 310.428 225.273 309.814 225.3C309.801 225.087 309.788 224.873 309.774 224.66C309.761 224.407 309.761 224.187 309.774 224C309.788 223.8 309.801 223.567 309.814 223.3ZM333.601 235C333.054 235 332.561 234.88 332.121 234.64C331.681 234.4 331.328 234.02 331.061 233.5C330.794 232.967 330.661 232.3 330.661 231.5H331.841C331.841 232.14 331.994 232.587 332.301 232.84C332.621 233.08 333.054 233.2 333.601 233.2H333.901L334.021 234.14L333.901 235H333.601ZM322.141 229.96C321.781 230.693 321.501 231.407 321.301 232.1C321.114 232.78 321.021 233.48 321.021 234.2C321.021 234.987 321.148 235.68 321.401 236.28C321.654 236.893 322.048 237.373 322.581 237.72C323.114 238.067 323.794 238.24 324.621 238.24H326.761C327.668 238.24 328.374 238.133 328.881 237.92C329.388 237.72 329.748 237.393 329.961 236.94C330.174 236.5 330.281 235.893 330.281 235.12V228.84H331.841V235.12C331.841 236.667 331.434 237.873 330.621 238.74C329.808 239.607 328.521 240.04 326.761 240.04H324.621C323.514 240.04 322.574 239.767 321.801 239.22C321.028 238.673 320.441 237.953 320.041 237.06C319.654 236.167 319.461 235.213 319.461 234.2C319.461 233.307 319.588 232.44 319.841 231.6C320.094 230.76 320.421 229.973 320.821 229.24L322.141 229.96ZM325.081 228.84C325.428 228.813 325.781 228.793 326.141 228.78C326.501 228.767 326.861 228.753 327.221 228.74C327.221 229.193 327.221 229.527 327.221 229.74C327.221 229.953 327.221 230.28 327.221 230.72C326.728 230.747 326.361 230.767 326.121 230.78C325.894 230.793 325.548 230.807 325.081 230.82C325.081 230.367 325.081 230.033 325.081 229.82C325.081 229.607 325.081 229.28 325.081 228.84ZM334.093 233.2H336.793C337.566 233.2 338.106 233.067 338.413 232.8C338.733 232.533 338.88 232.16 338.853 231.68C338.826 231.293 338.746 230.747 338.613 230.04C338.493 229.333 338.366 228.673 338.233 228.06L339.753 227.66C339.9 228.273 340.04 228.973 340.173 229.76C340.306 230.533 340.386 231.16 340.413 231.64C340.44 232.213 340.32 232.76 340.053 233.28C339.8 233.787 339.393 234.2 338.833 234.52C338.286 234.84 337.606 235 336.793 235H334.093V233.2ZM333.753 235V233.2H334.273L334.373 234.12L334.273 235H333.753ZM334.273 238.2C334.62 238.187 334.88 238.173 335.053 238.16C335.226 238.147 335.486 238.133 335.833 238.12C336.246 238.107 336.66 238.087 337.073 238.06C337.086 238.327 337.1 238.553 337.113 238.74C337.126 238.94 337.126 239.167 337.113 239.42C337.113 239.633 337.1 239.847 337.073 240.06C336.433 240.087 335.96 240.107 335.653 240.12C335.346 240.147 334.886 240.173 334.273 240.2C334.273 239.747 334.273 239.407 334.273 239.18C334.273 238.967 334.273 238.64 334.273 238.2ZM337.033 238.06C337.673 238.033 338.146 238.007 338.453 237.98C338.76 237.967 339.22 237.947 339.833 237.92C339.833 238.373 339.833 238.707 339.833 238.92C339.833 239.147 339.833 239.48 339.833 239.92C339.193 239.947 338.72 239.967 338.413 239.98C338.106 240.007 337.646 240.033 337.033 240.06C337.02 239.833 337.006 239.62 336.993 239.42C336.98 239.167 336.98 238.94 336.993 238.74C337.006 238.553 337.02 238.327 337.033 238.06ZM347.95 228.84V234.48C347.95 235.68 347.743 236.693 347.33 237.52C346.93 238.347 346.337 238.973 345.55 239.4C344.763 239.827 343.803 240.04 342.67 240.04H341.41V238.24H342.67C343.563 238.24 344.277 238.113 344.81 237.86C345.357 237.607 345.757 237.207 346.01 236.66C346.263 236.113 346.39 235.387 346.39 234.48V228.84H347.95ZM347.95 231.68C347.95 232.227 348.083 232.62 348.35 232.86C348.617 233.087 349.037 233.2 349.61 233.2H349.81L349.93 234.12L349.81 235H349.61C349.143 235 348.717 234.9 348.33 234.7C347.943 234.5 347.623 234.153 347.37 233.66C347.13 233.167 347.01 232.507 347.01 231.68H347.95ZM349.611 233.2H352.311C353.084 233.2 353.624 233.067 353.931 232.8C354.251 232.533 354.398 232.16 354.371 231.68C354.344 231.293 354.264 230.747 354.131 230.04C354.011 229.333 353.884 228.673 353.751 228.06L355.271 227.66C355.418 228.273 355.558 228.973 355.691 229.76C355.824 230.533 355.904 231.16 355.931 231.64C355.958 232.213 355.838 232.76 355.571 233.28C355.318 233.787 354.911 234.2 354.351 234.52C353.804 234.84 353.124 235 352.311 235H349.611V233.2ZM350.531 223.44C350.878 223.427 351.138 223.413 351.311 223.4C351.484 223.387 351.744 223.373 352.091 223.36C352.504 223.333 352.918 223.313 353.331 223.3C353.344 223.567 353.358 223.8 353.371 224C353.384 224.187 353.384 224.407 353.371 224.66C353.371 224.86 353.358 225.073 353.331 225.3C352.691 225.327 352.218 225.353 351.911 225.38C351.604 225.393 351.144 225.413 350.531 225.44C350.531 224.987 350.531 224.653 350.531 224.44C350.531 224.213 350.531 223.88 350.531 223.44ZM353.291 223.3C353.931 223.273 354.404 223.253 354.711 223.24C355.018 223.213 355.478 223.187 356.091 223.16C356.091 223.613 356.091 223.953 356.091 224.18C356.091 224.393 356.091 224.72 356.091 225.16C355.451 225.187 354.978 225.213 354.671 225.24C354.364 225.253 353.904 225.273 353.291 225.3C353.278 225.087 353.264 224.873 353.251 224.66C353.238 224.407 353.238 224.187 353.251 224C353.264 223.8 353.278 223.567 353.291 223.3ZM368.098 240.04C366.991 240.04 366.051 239.767 365.278 239.22C364.504 238.673 363.918 237.953 363.518 237.06C363.131 236.167 362.938 235.213 362.938 234.2C362.938 233.547 363.038 232.84 363.238 232.08C363.451 231.32 363.698 230.64 363.978 230.04L365.358 230.72C365.118 231.227 364.911 231.8 364.738 232.44C364.578 233.08 364.498 233.667 364.498 234.2C364.498 234.987 364.624 235.68 364.877 236.28C365.131 236.893 365.524 237.373 366.058 237.72C366.591 238.067 367.271 238.24 368.098 238.24H369.078C369.984 238.24 370.691 238.133 371.198 237.92C371.704 237.72 372.064 237.393 372.278 236.94C372.491 236.5 372.598 235.893 372.598 235.12L372.578 222.02H374.138L374.158 235.12C374.158 236.667 373.751 237.873 372.938 238.74C372.124 239.607 370.838 240.04 369.078 240.04H368.098ZM375.918 235C375.371 235 374.878 234.88 374.438 234.64C373.998 234.4 373.644 234.02 373.378 233.5C373.111 232.967 372.978 232.3 372.978 231.5H374.158C374.158 232.14 374.311 232.587 374.618 232.84C374.938 233.08 375.371 233.2 375.918 233.2H376.218L376.338 234.14L376.218 235H375.918ZM376.076 233.2H376.636C376.956 233.2 377.209 233.133 377.396 233C377.596 232.853 377.729 232.64 377.796 232.36L378.436 230.06C378.729 229.02 379.182 228.207 379.796 227.62C380.409 227.02 381.149 226.72 382.016 226.72C382.709 226.72 383.322 226.927 383.856 227.34C384.389 227.74 384.802 228.287 385.096 228.98C385.389 229.66 385.536 230.4 385.536 231.2C385.536 232.187 385.396 233 385.116 233.64C384.836 234.267 384.469 234.72 384.016 235C383.576 235.293 383.109 235.44 382.616 235.44C382.096 235.44 381.569 235.333 381.036 235.12C380.502 234.907 379.662 234.507 378.516 233.92L377.996 233.66L378.716 232.06C378.876 232.14 379.029 232.22 379.176 232.3C380.256 232.847 381.002 233.207 381.416 233.38C381.842 233.553 382.242 233.64 382.616 233.64C383.069 233.64 383.409 233.473 383.636 233.14C383.862 232.793 383.976 232.147 383.976 231.2C383.976 230.36 383.809 229.707 383.476 229.24C383.142 228.76 382.656 228.52 382.016 228.52C381.536 228.52 381.116 228.687 380.756 229.02C380.409 229.353 380.142 229.86 379.956 230.54L379.316 232.84C379.196 233.267 378.996 233.647 378.716 233.98C378.449 234.3 378.129 234.553 377.756 234.74C377.396 234.913 377.022 235 376.636 235H376.076V233.2ZM391.847 235C390.941 235 390.234 234.833 389.727 234.5C389.221 234.153 388.861 233.673 388.647 233.06C388.447 232.447 388.347 231.687 388.347 230.78L388.327 222.02H389.887L389.907 230.78C389.907 231.5 389.947 232.02 390.027 232.34C390.121 232.66 390.294 232.887 390.547 233.02C390.814 233.14 391.247 233.2 391.847 233.2H392.147L392.247 234.12L392.147 235H391.847ZM401.335 223.02L395.035 225.8L398.675 229.5C399.328 230.153 399.668 230.92 399.695 231.8C399.721 232.68 399.435 233.433 398.835 234.06C398.248 234.687 397.441 235 396.415 235H391.955V233.2H396.415C397.041 233.2 397.508 233.08 397.815 232.84C398.135 232.6 398.268 232.293 398.215 231.92C398.175 231.533 397.955 231.14 397.555 230.74L393.335 226.5L393.815 224.4L400.695 221.38L401.335 223.02Z" fill="#F2E5DA"/>
<rect x="166" y="288" width="232" height="50" rx="25" fill="white" fill-opacity="0.2"/>
<path d="M248.872 317C248.211 317 247.635 316.845 247.144 316.536C246.653 316.216 246.291 315.8 246.056 315.288C245.832 314.765 245.763 314.205 245.848 313.608C245.933 313.021 246.099 312.205 246.344 311.16L247.752 311.528L247.672 311.864C247.448 312.835 247.32 313.491 247.288 313.832C247.235 314.269 247.341 314.621 247.608 314.888C247.885 315.144 248.307 315.272 248.872 315.272H255.768C256.269 315.272 256.637 315.144 256.872 314.888C257.117 314.632 257.24 314.317 257.24 313.944C257.24 313.464 257.085 312.515 256.776 311.096L258.216 310.728C258.568 312.243 258.744 313.331 258.744 313.992C258.744 314.472 258.627 314.947 258.392 315.416C258.168 315.875 257.837 316.253 257.4 316.552C256.963 316.851 256.44 317 255.832 317H248.872ZM250.136 309.96C250.424 309.939 250.637 309.928 250.776 309.928C250.925 309.917 251.139 309.901 251.416 309.88C251.736 309.869 252.051 309.859 252.36 309.848C252.371 310.072 252.376 310.269 252.376 310.44C252.387 310.6 252.387 310.781 252.376 310.984C252.376 311.165 252.371 311.352 252.36 311.544C251.848 311.565 251.469 311.587 251.224 311.608C250.989 311.619 250.627 311.635 250.136 311.656C250.136 311.272 250.136 310.989 250.136 310.808C250.136 310.616 250.136 310.333 250.136 309.96ZM252.312 309.848C252.813 309.816 253.187 309.795 253.432 309.784C253.677 309.773 254.04 309.757 254.52 309.736C254.52 310.12 254.52 310.408 254.52 310.6C254.52 310.781 254.52 311.059 254.52 311.432C254.019 311.453 253.645 311.475 253.4 311.496C253.165 311.507 252.803 311.523 252.312 311.544C252.301 311.373 252.291 311.187 252.28 310.984C252.28 310.781 252.28 310.6 252.28 310.44C252.291 310.269 252.301 310.072 252.312 309.848ZM260.347 315.272H264.731C265.158 315.272 265.478 315.176 265.691 314.984C265.915 314.792 266.027 314.461 266.027 313.992V306.52H267.531V314.056C267.531 314.728 267.387 315.288 267.099 315.736C266.822 316.173 266.475 316.493 266.059 316.696C265.643 316.899 265.238 317 264.843 317H260.347V315.272ZM260.779 306.808L262.299 306.696L262.731 314.04L261.227 314.152L260.779 306.808ZM271.144 319.352C271.88 319.352 272.44 319.272 272.824 319.112C273.219 318.952 273.485 318.701 273.624 318.36C273.773 318.029 273.848 317.571 273.848 316.984V313.832C273.848 313.224 273.709 312.749 273.432 312.408C273.165 312.067 272.755 311.896 272.2 311.896C271.699 311.896 271.309 312.072 271.032 312.424C270.755 312.776 270.616 313.24 270.616 313.816C270.616 314.349 270.744 314.733 271 314.968C271.256 315.192 271.661 315.304 272.216 315.304H274.232L274.664 315.272H276.248L276.36 316.152L276.248 317H272.216C271.288 317 270.541 316.723 269.976 316.168C269.411 315.613 269.128 314.84 269.128 313.848C269.128 313.165 269.256 312.547 269.512 311.992C269.779 311.437 270.147 311.005 270.616 310.696C271.085 310.376 271.613 310.216 272.2 310.216C272.84 310.216 273.395 310.371 273.864 310.68C274.344 310.989 274.712 311.416 274.968 311.96C275.235 312.504 275.368 313.133 275.368 313.848V316.984C275.368 317.795 275.224 318.504 274.936 319.112C274.659 319.72 274.205 320.2 273.576 320.552C272.957 320.904 272.147 321.08 271.144 321.08H269.368V319.352H271.144ZM282.508 312.552C283.041 311.72 283.575 311.123 284.108 310.76C284.641 310.387 285.265 310.2 285.98 310.2C286.609 310.2 287.148 310.365 287.596 310.696C288.055 311.016 288.401 311.443 288.636 311.976C288.871 312.509 288.988 313.085 288.988 313.704C288.988 314.355 288.839 314.931 288.54 315.432C288.241 315.923 287.831 316.307 287.308 316.584C286.796 316.861 286.225 317 285.596 317H281.468C281.095 317 280.695 316.909 280.268 316.728C279.852 316.547 279.484 316.253 279.164 315.848C278.855 315.432 278.7 314.909 278.7 314.28V311.928H280.204V314.28C280.204 314.653 280.321 314.915 280.556 315.064C280.801 315.203 281.084 315.272 281.404 315.272H285.596C286.193 315.272 286.657 315.144 286.988 314.888C287.319 314.621 287.484 314.227 287.484 313.704C287.484 313.149 287.361 312.717 287.116 312.408C286.871 312.088 286.487 311.928 285.964 311.928C285.655 311.928 285.393 311.981 285.18 312.088C284.967 312.184 284.753 312.333 284.54 312.536C284.337 312.739 284.081 313.048 283.772 313.464C283.324 314.051 282.62 315.016 281.66 316.36L280.524 315.576L282.508 312.552ZM280.204 314.28C280.204 314.835 280.049 315.32 279.74 315.736C279.441 316.152 279.057 316.467 278.588 316.68C278.129 316.893 277.665 317 277.196 317H276.044V315.272H277.212C277.671 315.272 278.033 315.192 278.3 315.032C278.567 314.872 278.7 314.621 278.7 314.28H280.204ZM290.012 317C289.607 317 289.217 316.92 288.844 316.76C288.481 316.589 288.183 316.376 287.948 316.12C287.713 315.864 287.58 315.608 287.548 315.352L288.476 314.376C288.572 314.675 288.748 314.899 289.004 315.048C289.26 315.197 289.601 315.272 290.028 315.272H290.492L290.62 316.152L290.492 317H290.012ZM300.07 317C299.344 317 298.731 316.797 298.23 316.392C297.739 315.987 297.462 315.389 297.398 314.6L298.31 314.008C298.384 314.424 298.571 314.739 298.87 314.952C299.179 315.165 299.568 315.272 300.038 315.272H301.398L301.51 316.12L301.398 317H300.07ZM290.293 315.272H292.262C292.976 315.272 293.648 315.192 294.278 315.032C294.918 314.872 295.515 314.659 296.07 314.392C296.624 314.125 297.28 313.768 298.038 313.32L298.517 313.032L298.534 313.512L297.686 313.176C296.683 312.781 295.856 312.477 295.206 312.264C294.555 312.04 294.118 311.928 293.894 311.928C293.606 311.928 293.376 311.997 293.206 312.136C293.035 312.275 292.88 312.541 292.742 312.936L291.334 312.488C291.579 311.709 291.926 311.139 292.374 310.776C292.822 310.403 293.328 310.216 293.894 310.216C294.267 310.216 294.843 310.355 295.622 310.632C296.4 310.909 297.446 311.32 298.758 311.864C299.067 311.992 299.334 312.104 299.558 312.2L299.878 314.04L299.11 314.52C298.203 315.096 297.43 315.549 296.79 315.88C296.15 316.211 295.451 316.483 294.694 316.696C293.947 316.899 293.136 317 292.262 317H290.293V315.272ZM301.217 315.272H301.649C301.894 315.272 302.086 315.219 302.225 315.112C302.364 315.005 302.46 314.835 302.513 314.6L302.993 312.872C303.228 312.008 303.601 311.336 304.113 310.856C304.625 310.376 305.244 310.136 305.969 310.136C306.545 310.136 307.057 310.301 307.505 310.632C307.953 310.952 308.3 311.395 308.545 311.96C308.79 312.525 308.913 313.144 308.913 313.816C308.913 314.637 308.79 315.309 308.545 315.832C308.3 316.355 307.985 316.739 307.601 316.984C307.217 317.219 306.817 317.336 306.401 317.336C305.996 317.336 305.574 317.251 305.137 317.08C304.71 316.909 304.033 316.589 303.105 316.12L302.689 315.912L303.377 314.408C303.484 314.461 303.585 314.515 303.681 314.568C304.545 314.995 305.148 315.277 305.489 315.416C305.83 315.555 306.145 315.624 306.433 315.624C306.764 315.624 307.014 315.496 307.185 315.24C307.366 314.973 307.457 314.499 307.457 313.816C307.457 313.197 307.329 312.712 307.073 312.36C306.817 312.008 306.46 311.832 306.001 311.832C305.638 311.821 305.318 311.944 305.041 312.2C304.774 312.456 304.577 312.835 304.449 313.336L303.953 315.16C303.857 315.512 303.692 315.832 303.457 316.12C303.222 316.397 302.945 316.616 302.625 316.776C302.316 316.925 301.996 317 301.665 317H301.217V315.272ZM318.077 309.576C318.781 310.333 319.309 310.931 319.661 311.368C320.024 311.795 320.306 312.232 320.509 312.68C320.722 313.128 320.829 313.587 320.829 314.056C320.829 314.621 320.68 315.139 320.381 315.608C320.082 316.077 319.682 316.451 319.181 316.728C318.68 316.995 318.136 317.128 317.549 317.128C316.962 317.128 316.413 316.995 315.901 316.728C315.4 316.451 315 316.077 314.701 315.608C314.402 315.139 314.253 314.621 314.253 314.056C314.253 313.555 314.354 313.085 314.557 312.648C314.76 312.2 315.01 311.789 315.309 311.416C315.608 311.043 316.013 310.584 316.525 310.04L316.909 309.64L317.997 310.776L317.581 311.224C317.101 311.715 316.749 312.099 316.525 312.376C316.301 312.643 316.114 312.909 315.965 313.176C315.826 313.443 315.757 313.715 315.757 313.992C315.757 314.397 315.917 314.739 316.237 315.016C316.557 315.283 316.994 315.416 317.549 315.416C318.093 315.416 318.525 315.283 318.845 315.016C319.165 314.739 319.325 314.397 319.325 313.992C319.325 313.747 319.245 313.485 319.085 313.208C318.936 312.931 318.712 312.616 318.413 312.264C318.114 311.912 317.634 311.379 316.973 310.664C316.813 310.493 316.658 310.328 316.509 310.168C316.36 309.997 316.194 309.811 316.013 309.608L317.117 308.504L318.077 309.576ZM326.985 308.904C327.102 309.181 327.459 309.955 328.057 311.224C328.259 311.672 328.467 312.125 328.681 312.584C328.937 313.149 329.091 313.704 329.145 314.248C329.209 314.792 329.081 315.288 328.761 315.736C328.419 316.216 328.014 316.547 327.545 316.728C327.075 316.909 326.569 317 326.025 317H325.209C324.611 317 324.078 316.904 323.609 316.712C323.139 316.52 322.75 316.307 322.441 316.072L323.193 314.648L323.273 314.696C323.539 314.845 323.822 314.979 324.121 315.096C324.43 315.213 324.793 315.272 325.209 315.272H326.025C326.398 315.272 326.707 315.235 326.953 315.16C327.198 315.085 327.385 314.952 327.513 314.76C327.63 314.589 327.673 314.408 327.641 314.216C327.609 314.013 327.497 313.715 327.305 313.32L326.217 310.952C325.982 310.472 325.779 310.035 325.609 309.64L326.985 308.904ZM328.681 312.6C328.99 313.283 329.251 313.811 329.465 314.184C329.689 314.557 329.923 314.835 330.169 315.016C330.414 315.187 330.697 315.272 331.017 315.272H331.289L331.369 316.184L331.289 317H331.017C330.462 317 329.966 316.856 329.529 316.568C329.102 316.269 328.718 315.859 328.377 315.336C328.035 314.803 327.678 314.125 327.305 313.304L328.681 312.6ZM339.203 308.808L341.667 312.6C341.912 312.963 342.078 313.352 342.163 313.768C342.248 314.184 342.248 314.584 342.163 314.968C342.078 315.341 341.912 315.667 341.667 315.944C341.347 316.328 340.888 316.611 340.291 316.792C339.704 316.963 338.92 317.048 337.939 317.048C337.022 317.048 336.115 316.888 335.219 316.568C334.334 316.248 333.603 315.795 333.027 315.208C332.451 314.611 332.163 313.917 332.163 313.128C332.163 312.52 332.302 311.965 332.579 311.464C332.856 310.952 333.235 310.552 333.715 310.264C334.195 309.965 334.723 309.816 335.299 309.816C335.854 309.816 336.366 309.965 336.835 310.264C337.304 310.552 337.678 310.952 337.955 311.464C338.243 311.965 338.387 312.515 338.387 313.112C338.387 313.933 338.099 314.637 337.523 315.224C336.958 315.811 336.216 316.253 335.299 316.552C334.382 316.851 333.411 317 332.387 317H331.123V315.272H332.579C333.422 315.272 334.168 315.192 334.819 315.032C335.47 314.861 335.971 314.621 336.323 314.312C336.686 313.992 336.867 313.619 336.867 313.192C336.867 312.691 336.723 312.285 336.435 311.976C336.147 311.667 335.763 311.512 335.283 311.512C334.803 311.512 334.414 311.672 334.115 311.992C333.816 312.301 333.667 312.701 333.667 313.192C333.667 313.64 333.848 314.024 334.211 314.344C334.574 314.664 335.064 314.904 335.683 315.064C336.302 315.224 337.006 315.304 337.795 315.304C338.574 315.304 339.182 315.267 339.619 315.192C340.067 315.117 340.366 315 340.515 314.84C340.654 314.691 340.712 314.509 340.691 314.296C340.67 314.072 340.563 313.811 340.371 313.512L337.923 309.752L339.203 308.808ZM347.131 317C346.395 317 345.809 316.861 345.371 316.584C344.945 316.296 344.641 315.901 344.459 315.4C344.278 314.888 344.187 314.269 344.187 313.544L344.171 306.52H345.675L345.691 313.544C345.691 314.067 345.723 314.445 345.787 314.68C345.851 314.904 345.979 315.059 346.171 315.144C346.363 315.229 346.683 315.272 347.131 315.272H347.483L347.579 316.152L347.483 317H347.131ZM354.366 316.008C354.153 316.317 353.87 316.563 353.518 316.744C353.177 316.915 352.798 317 352.382 317C351.998 317 351.614 316.909 351.23 316.728C350.846 316.547 350.553 316.307 350.35 316.008C350.116 316.328 349.822 316.573 349.47 316.744C349.129 316.915 348.75 317 348.334 317H347.326V315.272H348.366C348.836 315.272 349.166 315.181 349.358 315C349.561 314.808 349.662 314.477 349.662 314.008V311.928H351.182V313.992C351.182 314.451 351.278 314.781 351.47 314.984C351.662 315.176 351.972 315.272 352.398 315.272C352.836 315.272 353.15 315.176 353.342 314.984C353.534 314.781 353.63 314.451 353.63 313.992V311.928H355.134V313.992C355.134 314.44 355.246 314.765 355.47 314.968C355.694 315.171 356.009 315.272 356.414 315.272C356.841 315.272 357.145 315.176 357.326 314.984C357.518 314.781 357.614 314.451 357.614 313.992V311.928H359.118V314.008C359.118 314.477 359.214 314.808 359.406 315C359.609 315.181 359.95 315.272 360.43 315.272H361.47L361.55 316.136L361.47 317H360.446C360.041 317 359.662 316.915 359.31 316.744C358.958 316.573 358.665 316.328 358.43 316.008C358.238 316.307 357.945 316.547 357.55 316.728C357.166 316.909 356.788 317 356.414 317C356.02 317 355.646 316.915 355.294 316.744C354.953 316.573 354.644 316.328 354.366 316.008ZM353.534 306.072C353.918 306.051 354.212 306.035 354.414 306.024C354.628 306.013 354.926 305.997 355.31 305.976C355.31 306.328 355.31 306.589 355.31 306.76C355.31 306.92 355.31 307.165 355.31 307.496C354.926 307.517 354.628 307.533 354.414 307.544C354.212 307.555 353.918 307.571 353.534 307.592C353.534 307.24 353.534 306.984 353.534 306.824C353.534 306.664 353.534 306.413 353.534 306.072ZM352.254 308.344C352.542 308.333 352.756 308.323 352.894 308.312C353.033 308.301 353.246 308.291 353.534 308.28C353.844 308.259 354.158 308.243 354.478 308.232C354.478 308.616 354.478 308.904 354.478 309.096C354.478 309.277 354.478 309.555 354.478 309.928C353.966 309.96 353.588 309.981 353.342 309.992C353.097 310.003 352.734 310.019 352.254 310.04C352.254 309.656 352.254 309.373 352.254 309.192C352.254 309 352.254 308.717 352.254 308.344ZM354.43 308.232C354.932 308.211 355.305 308.195 355.55 308.184C355.796 308.163 356.158 308.141 356.638 308.12C356.638 308.504 356.638 308.792 356.638 308.984C356.638 309.165 356.638 309.443 356.638 309.816C356.137 309.848 355.764 309.869 355.518 309.88C355.284 309.891 354.921 309.907 354.43 309.928C354.43 309.544 354.43 309.261 354.43 309.08C354.43 308.888 354.43 308.605 354.43 308.232ZM361.311 315.272H361.743C361.988 315.272 362.18 315.219 362.319 315.112C362.457 315.005 362.553 314.835 362.607 314.6L363.087 312.872C363.321 312.008 363.695 311.336 364.207 310.856C364.719 310.376 365.337 310.136 366.063 310.136C366.639 310.136 367.151 310.301 367.599 310.632C368.047 310.952 368.393 311.395 368.639 311.96C368.884 312.525 369.007 313.144 369.007 313.816C369.007 314.637 368.884 315.309 368.639 315.832C368.393 316.355 368.079 316.739 367.695 316.984C367.311 317.219 366.911 317.336 366.495 317.336C366.089 317.336 365.668 317.251 365.231 317.08C364.804 316.909 364.127 316.589 363.199 316.12L362.783 315.912L363.471 314.408C363.577 314.461 363.679 314.515 363.775 314.568C364.639 314.995 365.241 315.277 365.583 315.416C365.924 315.555 366.239 315.624 366.527 315.624C366.857 315.624 367.108 315.496 367.279 315.24C367.46 314.973 367.551 314.499 367.551 313.816C367.551 313.197 367.423 312.712 367.167 312.36C366.911 312.008 366.553 311.832 366.095 311.832C365.732 311.821 365.412 311.944 365.135 312.2C364.868 312.456 364.671 312.835 364.543 313.336L364.047 315.16C363.951 315.512 363.785 315.832 363.551 316.12C363.316 316.397 363.039 316.616 362.719 316.776C362.409 316.925 362.089 317 361.759 317H361.311V315.272Z" fill="white"/>
<path d="M193.57 306.93L187.5 313L193.57 319.07" stroke="white" stroke-width="1.5" stroke-miterlimit="10" stroke-linecap="round" stroke-linejoin="round"/>
<path d="M204.5 313H187.67" stroke="white" stroke-width="1.5" stroke-miterlimit="10" stroke-linecap="round" stroke-linejoin="round"/>
</svg>
