<svg width="170" height="369" viewBox="0 0 170 369" fill="none" xmlns="http://www.w3.org/2000/svg">
<mask id="mask0_1_1324" style="mask-type:luminance" maskUnits="userSpaceOnUse" x="-242" y="0" width="412" height="513">
<path d="M169.591 433.239L53.5889 0.313341L-241.404 79.3563L-125.402 512.282L169.591 433.239Z" fill="white"/>
</mask>
<g mask="url(#mask0_1_1324)">
<path fill-rule="evenodd" clip-rule="evenodd" d="M49.2119 36.7525C43.573 39.4613 39.3325 42.6653 35.9781 46.2412C34.198 48.1505 32.6831 50.1554 31.3868 52.3153C28.811 56.6201 27.2111 61.476 26.0356 66.8275C24.4672 73.9979 23.6994 82.0371 22.8772 90.9034C22.739 92.1956 22.6203 93.4826 22.5198 94.7596C23.1682 97.1797 23.8077 99.6438 24.4552 102.158C24.5008 102.328 24.4038 102.51 24.2253 102.563C24.0663 102.611 23.8694 102.518 23.8226 102.343C23.2954 100.823 22.7686 99.3232 22.2749 97.8305C20.9925 114.893 21.1662 131.383 22.169 147.683C22.2102 146.651 22.2501 145.614 22.3377 144.58C22.6923 140.344 23.3771 136.077 24.3099 131.822C25.6273 125.912 27.4639 120.034 29.5781 114.259C31.1024 110.132 32.7682 106.066 34.5857 102.1C36.8573 97.1263 39.3038 92.3197 41.8452 87.7116C41.2568 87.0515 40.7456 86.3291 40.3434 85.567C39.2674 83.5532 39.0087 81.3048 39.9263 79.2673C40.6529 77.7027 41.5548 76.6173 42.6502 75.7874C43.3009 75.3004 43.9985 74.9104 44.7616 74.5705C45.2652 74.2533 45.8272 73.9986 46.4815 73.7972C46.8178 73.6914 47.1411 73.6152 47.4454 73.565C47.779 73.4495 48.091 73.3503 48.4143 73.2741C49.0331 73.1343 49.6638 73.1164 50.1549 73.2192C54.0293 73.9362 56.1683 77.5455 56.2685 81.1072C56.3145 82.4647 56.0368 83.7996 55.473 84.961C54.5995 88.8931 51.4116 91.9244 46.854 90.932C46.0426 90.7224 45.1574 90.3345 44.332 89.8005C42.1842 94.5167 40.0719 99.3848 38.1179 104.377C35.7907 110.329 33.6455 116.435 31.8831 122.59C30.2856 128.096 28.9914 133.646 28.0296 139.154C27.374 142.908 26.8155 146.635 26.5617 150.334C26.4814 151.22 26.4047 152.1 26.3438 152.981C27.1371 151.023 27.991 149.117 28.9529 147.245C30.0477 145.15 31.267 143.13 32.5652 141.152C35.1203 137.217 37.9641 133.466 41.0732 129.966C43.1523 127.617 45.3604 125.4 47.5713 123.272C49.7324 121.229 51.9597 119.356 54.2722 117.606C56.5797 115.858 58.9711 114.227 61.4513 112.657C62.0726 112.235 62.697 111.844 63.3353 111.485C63.9931 111.121 64.6599 110.792 65.3359 110.496C65.6436 110.361 66.0959 109.969 66.3563 109.853C66.8434 109.649 67.1153 109.847 67.4781 110.307C67.9545 110.258 67.4218 110.369 67.9038 110.438C68.0811 110.458 67.9796 110.449 68.088 110.581C68.3547 110.838 68.1781 111.365 68.0912 111.857C67.848 113.146 66.8511 114.965 66.5415 115.715L61.2269 127.467C58.2554 133.93 55.3173 140.342 51.5784 146.235C50.3098 148.226 48.9179 150.146 47.4728 152.022C46.0226 153.88 44.5327 155.706 42.802 157.43C38.6703 161.662 32.9521 164.445 28.2638 168.232C27.6797 168.696 27.155 169.206 26.5952 169.664C26.4605 169.783 26.298 169.915 26.139 170.041C26.4797 180.137 27.3847 190.26 27.7158 200.223C29.4956 213.241 31.4403 226.408 33.3234 239.909C36.1741 260.364 35.8073 280.921 32.7839 301.127C34.9641 295.074 37.0647 289.074 39.0379 283.337C42.8091 272.764 46.3727 262.038 49.3872 251.167C50.1861 248.24 50.9361 245.304 51.6834 242.359C53.2729 236.084 54.0336 229.651 55.6209 223.387C52.4216 221.458 51.8735 217.313 53.2096 213.747C54.757 209.686 58.5299 206.759 62.5258 208.745C65.878 210.331 66.9366 214.282 66.0957 217.617C65.8652 218.564 65.4919 219.445 64.9886 220.211C64.4251 221.393 63.4846 222.431 62.3425 223.164C61.134 223.941 59.7017 224.33 58.2857 224.236C57.5201 231.389 56.3276 238.485 54.7753 245.52C51.8376 258.855 47.6595 271.933 43.3621 284.819C41.9902 288.718 40.6854 292.771 39.2985 296.866L39.6038 296.373C41.0674 294.002 42.5261 291.631 44.0192 289.273C45.128 287.502 46.2637 285.734 47.4328 283.994C48.2354 282.81 49.0419 281.641 49.8598 280.494C50.3739 279.789 50.8955 279.092 51.3941 278.406C52.3657 277.115 53.3169 275.844 54.3198 274.591C55.1815 273.511 56.0448 272.457 56.9328 271.417C58.7545 269.293 60.6637 267.224 62.6375 265.221C64.9939 262.819 67.469 260.51 70.0868 258.345C73.0174 255.909 76.0976 253.662 79.3742 251.7C79.6485 251.538 79.9228 251.376 80.1971 251.214C80.3422 251.134 80.4679 251.058 80.6178 250.976C81.1075 250.705 81.5998 250.442 82.0872 250.182C83.1116 249.631 84.1593 249.09 85.198 248.593C85.8033 248.306 86.3944 248.043 87.0089 247.79C87.5106 247.583 88.0199 247.384 88.533 247.199C88.7513 247.12 89.0001 247.038 89.2259 246.967C89.3788 246.915 89.5378 246.868 89.6956 246.815C89.9868 246.716 90.2767 246.612 90.5887 246.513C91.016 246.378 91.4446 246.247 91.881 246.146C92.2507 246.068 92.6242 246.004 93.0087 246.078C93.1409 246.105 93.2466 246.15 93.3637 246.217C93.4214 246.238 93.4487 246.262 93.4834 246.295C93.486 246.304 93.4886 246.314 93.5106 246.319C93.5119 246.324 93.5132 246.328 93.5145 246.333C93.5158 246.338 93.5158 246.338 93.5401 246.332C93.5414 246.336 93.567 246.335 93.5878 246.334C93.6685 246.344 93.7456 246.36 93.782 246.418C93.8501 246.478 93.848 246.567 93.8688 246.645C93.9013 246.766 93.9326 246.883 93.9868 246.988C94.0064 247.061 94.0246 247.129 94.0428 247.197C94.0559 247.245 94.0896 247.294 94.1026 247.342C94.0949 247.391 94.1066 247.435 94.0928 247.48C94.0776 247.521 94.0867 247.555 94.0777 247.599C94.0274 247.878 93.9318 248.143 93.8275 248.395C93.6455 248.824 93.4169 249.234 93.1614 249.641C92.8538 250.146 92.5251 250.63 92.1903 251.11C92.0664 251.289 91.9424 251.468 91.7978 251.647C91.7467 251.729 91.6881 251.802 91.637 251.883C88.4708 256.706 85.2741 261.531 82.1065 266.349C82.0528 266.42 82.0185 266.487 81.9648 266.558C81.8817 266.695 81.7937 266.833 81.7106 266.97C81.4858 267.317 81.2866 267.662 81.0618 268.009C80.3518 269.189 79.6507 270.382 78.9446 271.576C75.0644 278.204 71.4221 284.983 67.188 291.398C66.4149 292.595 65.5906 293.795 64.7585 294.966C63.5954 296.554 62.4254 298.097 61.1756 299.614C58.683 302.693 55.9585 305.626 52.9205 308.206C52.4837 308.578 52.0431 308.936 51.6025 309.294C51.4001 309.452 51.1978 309.61 50.9941 309.764C48.9902 311.285 46.8163 312.56 44.5657 313.705C43.836 314.073 43.1037 314.43 42.3639 314.78C41.9328 314.978 41.5211 315.172 41.0852 315.372C40.4131 315.682 39.7579 316.056 39.108 316.449C38.2094 317.002 37.2969 317.601 36.3674 318.136C35.3136 318.752 34.216 319.301 33.0185 319.575C32.6758 319.657 32.3508 319.707 32.0157 319.74C31.9195 319.75 31.8268 319.754 31.7293 319.759C31.6768 319.758 31.6097 319.76 31.5303 319.755C31.4814 319.748 31.4298 319.73 31.3708 319.704C31.3127 319.663 31.2715 319.606 31.2147 319.569C31.1541 319.518 31.0912 319.477 31.0127 319.456C30.8853 319.428 30.7813 319.409 30.6785 319.395C30.5819 319.384 30.4831 319.385 30.383 319.38C30.3353 319.378 30.2828 319.376 30.2096 319.375C30.1888 319.375 30.1862 319.365 30.1606 319.367C30.1606 319.367 30.1376 319.378 30.1389 319.383C30.1195 319.389 30.0965 319.4 30.0722 319.406C30.0055 319.43 29.9361 319.443 29.8885 319.44L29.8642 319.447C29.558 320.034 29.2311 320.621 28.8993 321.21C25.9655 333.471 22.129 345.53 17.4337 357.32C9.66997 376.843 -0.331819 395.575 -11.9827 413.051C-12.2876 413.643 -12.635 414.174 -13.0058 414.695C-13.1002 414.887 -13.2306 415.042 -13.396 415.144C-21.3571 426.855 -30.0529 437.982 -39.2856 448.388C-37.9098 447.692 -36.5388 446.996 -35.1348 446.307L-34.8532 445.998C-33.9062 444.983 -32.801 444.015 -31.8092 442.974C-31.4124 442.55 -31.0208 442.106 -30.7051 441.652L-27.2432 436.63C-24.8923 433.761 -22.4763 430.764 -19.9841 427.878C-18.3145 425.925 -16.5808 424.018 -14.7862 422.24C-12.9775 420.438 -11.0868 418.864 -9.11755 417.388C-6.21324 415.203 -3.15114 413.258 -0.0548634 411.168C1.64192 410.036 3.24593 408.83 4.94271 407.699C5.68359 407.198 6.46014 406.714 7.25776 406.25L15.2634 402.266C16.1942 401.736 17.1054 401.132 17.9845 400.506C19.3554 399.519 20.7276 398.458 22.0985 397.471C24.4192 395.849 26.7789 394.373 28.9773 392.665C29.9111 391.951 30.7885 391.221 31.6168 390.405C32.6756 389.361 33.7071 388.293 34.8314 387.299C35.5974 386.62 36.3786 385.978 37.2257 385.407L39.7942 383.719C40.0594 383.523 40.5698 382.959 40.7188 382.893C41.1175 382.729 41.3902 382.833 41.5952 382.976C41.7496 383.086 42.0577 383.342 41.9171 383.906C41.6706 385.065 41.2662 386.2 40.8592 387.325C39.9345 389.88 38.7501 392.379 37.6771 394.828C36.4118 397.746 34.9832 400.597 33.3424 403.318C30.9031 407.394 27.9713 411.205 24.8353 414.78C20.452 419.725 15.5246 424.176 10.229 428.069C17.942 424.82 25.5811 421.393 33.0611 417.644C43.1865 412.571 53.0647 407.023 62.6538 400.688C60.5677 396.81 60.5688 392.09 64.6258 389.29C66.0864 388.19 68.601 387.292 70.9964 387.135C72.8383 387.011 74.611 387.349 75.8882 388.189C78.371 389.815 79.5965 393.028 79.6134 396.279C79.6049 396.792 79.5683 397.297 79.5083 397.792C79.5989 399.044 79.4148 400.359 78.9723 401.623C78.5233 402.863 77.9301 404.09 77.1114 405.038C76.3463 405.915 75.3258 406.48 74.0717 406.796C72.9575 407.011 71.8232 406.976 70.7275 406.697C70.4254 406.658 70.1389 406.599 69.8546 406.53C67.7112 405.995 65.6355 404.624 64.0962 402.786C51.9706 412.134 38.8374 419.627 25.4492 426.538C15.8092 431.516 5.93886 436.083 -4.19382 440.215C-10.8758 442.938 -17.6794 445.401 -24.5063 447.856C-29.9656 449.777 -34.9633 452.876 -40.3812 454.932C-41.8668 455.492 -43.3484 456.066 -44.8994 456.283C-45.5118 456.369 -46.0644 456.387 -46.6295 456.377C-46.7626 456.522 -46.9163 456.668 -47.0506 456.808C-60.7632 471.06 -74.6128 484.063 -90.3496 494.493C-100.828 501.437 -112.118 507.16 -124.564 511.677C-125.001 511.851 -125.527 511.638 -125.695 511.188C-125.862 510.738 -125.658 510.236 -125.191 510.053C-113.217 504.98 -102.516 498.597 -92.4662 491.415C-89.9085 489.589 -87.3574 487.738 -84.8977 485.819C-72.6815 476.342 -61.4644 465.43 -50.4498 453.588C-38.799 441.185 -27.9731 427.628 -18.2653 413.183L-17.0944 407.27C-16.6214 405.206 -16.575 403.105 -16.6583 400.986C-16.8133 397.569 -17.3729 394.12 -17.7124 390.774C-17.7546 390.15 -17.7787 389.515 -17.8258 388.893C-18.7124 382.396 -19.6493 375.886 -20.4459 369.376C-21.3572 361.776 -21.9588 354.166 -21.9205 346.572C-21.5927 331.604 -19.7622 316.509 -19.3962 301.489C-19.239 295.525 -19.4376 289.594 -19.8352 283.658C-19.8919 282.903 -19.9229 282.145 -19.9783 281.395C-20.3293 281.348 -20.6661 281.277 -21.0311 281.198C-22.6166 280.82 -24.1069 280.079 -25.249 278.927C-27.1576 276.974 -28.0125 274.25 -27.7262 271.684C-27.4377 269.029 -25.9771 266.549 -23.3751 265.258C-22.7506 264.945 -21.0241 264.565 -19.249 264.465C-18.0266 263.642 -16.7085 263.935 -15.4916 264.822C-14.8253 265.035 -14.264 265.322 -13.879 265.651C-12.0772 267.204 -10.6877 270.66 -10.7072 273.853C-10.7162 276.366 -11.6484 278.621 -13.3984 280.001C-13.9863 280.451 -14.6186 280.735 -15.2886 280.878C-15.6595 281.029 -16.0443 281.148 -16.4591 281.233C-16.6207 281.271 -16.7837 281.304 -16.925 281.321C-16.8425 281.726 -16.7565 282.125 -16.6983 282.537C-16.0311 286.29 -15.7462 290.094 -15.5271 293.905C-15.05 302.606 -15.2871 311.362 -15.6461 320.13C-15.0145 318.211 -14.2953 316.346 -13.4656 314.525C-12.3999 312.224 -11.1361 310.021 -9.72097 307.74C-9.31863 307.065 -8.4519 304.76 -7.17948 303.502C-6.33077 302.665 -5.49487 302.228 -4.73511 302.342C-4.64016 302.327 -4.31119 302.369 -4.07095 302.721C-3.8255 303.093 -3.35177 304.122 -3.28547 304.292L-0.491637 309.976C0.546786 312.219 1.41842 314.558 2.1336 316.955C3.21023 320.526 3.97751 324.206 4.60565 327.814C6.09356 336.826 6.64314 345.992 6.18253 355.1C5.84936 361.845 5.01545 368.569 3.51674 375.163C4.98435 372.088 6.41854 368.985 7.77428 365.861C8.71973 359.748 9.20838 353.466 11.094 347.674C12.3374 344.112 13.7831 340.605 15.4509 337.168C17.5243 332.816 19.8791 328.58 22.0748 324.315C28.0747 300.561 30.4844 276.082 28.3257 251.639C24.0757 249.423 19.4848 247.685 15.1435 245.478C13.0302 244.414 11.0027 243.223 9.09908 241.853C7.52402 240.718 6.01796 239.548 4.5656 238.307C1.17003 235.373 -1.89147 232.131 -4.77457 228.758C-8.43589 224.462 -11.8182 219.926 -15.067 215.265C-17.2015 212.217 -19.2345 209.1 -21.3538 206.012C-23.4939 202.846 -25.6659 199.735 -27.7995 196.593C-29.2471 194.476 -30.6704 192.352 -32.0143 190.155C-32.654 189.128 -34.0875 187.335 -34.8284 185.659C-35.3259 184.521 -35.5072 183.398 -35.3397 182.467C-35.1793 181.706 -34.7556 181.285 -34.3145 181.026C-33.9119 180.798 -33.4075 180.679 -32.7929 180.795C-32.2749 180.901 -31.3411 181.568 -30.7689 181.779L-28.4815 182.677C-25.9375 183.813 -23.4236 185.186 -20.9673 186.695C-18.5453 188.191 -16.2052 189.83 -13.9959 191.525C-8.80033 195.617 -4.03377 200.033 0.465088 204.713C2.72182 207.051 4.90147 209.451 7.04913 211.907C6.77234 211.34 6.49911 210.768 6.22718 210.2C0.651549 198.314 -3.9329 186.297 -7.71267 174.018C-10.1472 166.118 -12.2904 158.119 -14.1516 149.987C-15.9459 142.202 -17.5672 134.324 -18.9218 126.276C-19.1428 126.267 -19.3677 126.244 -19.6196 126.218C-23.7289 125.616 -25.9529 121.592 -25.7867 117.761C-25.7226 116.639 -25.4734 115.567 -25.0403 114.618C-24.1482 111.863 -21.8042 109.959 -17.8664 110.737C-14.5701 111.396 -12.5936 114.127 -12.0562 117.123C-11.6741 118.005 -11.4818 118.917 -11.494 119.785C-11.5199 121.225 -12.0763 122.608 -13.3301 123.663C-13.9309 124.511 -14.7172 125.212 -15.6931 125.671C-15.0902 127.921 -14.558 130.179 -13.959 132.415C-12.6304 137.548 -11.2697 142.627 -9.89474 147.68C-8.96156 151.066 -8.0553 154.448 -7.12604 157.819C-4.7703 166.261 -2.26366 174.605 0.562753 182.879C3.82655 192.416 7.58473 201.815 11.7769 211.26C13.5433 215.209 15.2715 219.209 17.209 223.174C17.769 224.253 18.3675 225.301 18.9802 226.325C19.3155 226.74 19.6472 227.162 19.9533 227.585C21.3847 229.467 22.7316 231.403 24.0387 233.365C24.8404 234.453 25.6691 235.543 26.4553 236.65C22.1645 207.263 17.5448 179.37 15.6367 150.964C14.567 135.037 14.3526 118.959 15.4466 102.379C15.2112 102.239 14.9793 102.093 14.7643 101.932C14.4036 101.674 14.0775 101.371 13.7515 101.067C11.2975 98.8291 9.29794 95.818 7.33809 93.4993C5.88108 91.6189 4.45226 89.7464 3.00958 87.9194C0.761317 85.0687 -1.5173 82.299 -3.36397 79.2364C-5.39837 75.8231 -6.9969 72.1316 -8.00745 67.9908C-8.34653 66.5504 -8.62669 65.0578 -8.85827 63.5521C-9.08983 62.0464 -9.25076 60.5322 -9.38054 59.0565L-9.51581 53.2646L-9.31846 50.2689L-8.92223 48.2877C-8.25776 46.219 -7.37682 45.7746 -6.66837 45.5223C-6.28743 45.389 -6.06033 45.3229 -5.59137 45.3431C-5.4692 45.352 -5.37512 45.431 -5.23765 45.4775C-4.3694 45.8022 -3.33327 46.6756 -2.20611 47.5194C-0.960038 48.6126 0.154219 49.7776 1.21703 51.0033C2.71768 52.794 4.05936 54.7105 5.51898 56.6007L7.78902 59.5133C9.21307 61.4651 10.531 63.5652 11.722 65.7357C11.9263 66.1289 12.1257 66.5233 12.3556 66.9149C12.1712 66.3237 12.0379 65.7291 11.8985 65.1311C11.1596 61.9071 10.6994 58.6345 10.4424 55.3232C9.844 47.9 10.085 40.2468 11.8203 32.2608C12.021 31.28 12.2742 30.3007 12.5702 29.3255C11.9529 28.8294 11.3563 28.2549 10.8451 27.6106C9.07198 25.3669 8.11308 22.4103 8.51855 19.7443C8.65644 18.8011 8.86521 17.5003 9.38146 16.4141C9.59445 15.9455 9.84833 15.5129 10.158 15.1331C10.6531 14.24 11.347 13.1946 12.1048 12.4656C12.8616 11.7523 13.7248 11.3387 14.6016 11.2288C18.1574 10.7761 21.3953 12.7522 23.2899 15.5467C24.9827 17.588 25.7621 20.3219 25.5734 22.8829C25.4629 24.298 25.0491 25.6693 24.3145 26.8349C24.004 27.3087 23.6574 27.7453 23.2723 28.135C22.3186 29.8437 20.7774 31.0119 18.6881 31.2227C17.5643 31.3051 16.4538 31.1651 15.4122 30.8348C15.4055 31.1596 15.3696 31.4921 15.3372 31.8185C14.7266 38.8312 14.574 45.3566 15.0464 51.7457C15.3352 55.5642 15.874 59.3053 16.3254 63.0698C16.6172 65.6167 16.6637 68.1616 17.0583 70.7226C17.3377 72.679 17.6904 74.6366 18.0942 76.5909C18.6531 72.6703 19.2887 68.9583 20.1572 65.4547C21.6531 59.4912 23.7305 54.1429 26.8172 49.4511C28.4324 47.0235 30.2587 44.7425 32.5199 42.7042C36.3819 39.1954 41.27 36.3283 47.5223 34.101C46.6901 31.7145 46.929 28.7963 47.733 26.6069C48.743 23.8258 52.2264 22.6164 54.7425 24.2704C54.8045 24.3267 54.8907 24.3765 54.9527 24.4328C55.8161 24.5452 56.6354 24.784 57.3476 25.2651C64.3281 29.8375 56.8652 43.0196 49.4338 36.9586C49.3692 36.8926 49.2791 36.8282 49.2119 36.7525ZM38.7895 386.598C37.4376 388.648 36.0992 390.767 34.5068 392.735C31.6151 396.328 28.3295 399.713 25.3308 402.887C19.8981 408.639 14.0492 414.024 7.85963 419.032C1.68815 424.029 -4.82891 428.65 -11.5351 432.838L-25.4761 441.417C-26.5992 442.125 -27.8363 442.795 -29.0349 443.512C-29.5826 443.742 -30.1533 443.983 -30.6971 444.228C-30.6538 444.195 -30.6395 444.171 -30.6204 444.145C-30.1582 443.693 -29.6989 443.21 -29.2974 442.707L-25.7522 437.918C-23.2981 435.162 -20.7816 432.269 -18.1822 429.51C-16.4519 427.687 -14.6791 425.925 -12.8724 424.29C-11.068 422.666 -9.19748 421.269 -7.27536 419.967C-4.30472 417.953 -1.19575 416.182 1.95 414.277L9.20774 409.795C11.0333 408.775 12.9369 407.968 14.7846 407.03C15.6413 406.592 16.4707 406.13 17.2835 405.626C18.287 404.998 19.2698 404.292 20.2372 403.548C21.5912 402.498 22.8988 401.372 24.2272 400.323C26.1487 398.766 28.1102 397.34 29.9494 395.748C31.2158 394.643 32.4371 393.467 33.5245 392.16C34.4454 391.048 35.3599 389.913 36.3464 388.851C36.9659 388.17 37.643 387.509 38.3592 386.916L38.7895 386.598ZM38.0847 389.896C37.3857 391.292 36.6313 392.655 35.9488 394.015C34.5443 396.782 32.9608 399.425 31.2655 402.02C28.768 405.898 25.9896 409.622 22.9151 413.076C17.7572 418.843 11.8509 423.936 5.46341 428.205C3.28746 429.726 0.73623 431.498 -1.9676 433.051L-2.34333 433.203C-8.3125 435.574 -14.2891 437.935 -20.3112 440.205L-10.6838 434.188C-3.95337 429.916 2.56621 425.226 8.76544 420.138C14.9611 415.056 20.8316 409.577 26.2642 403.746C29.2561 400.528 32.5647 397.131 35.4293 393.457C36.3395 392.286 37.2448 391.116 38.0847 389.896ZM-5.88686 306.13C-5.9094 306.24 -5.90411 306.338 -5.90367 306.436C-6.51839 312.695 -6.74607 319.037 -6.74753 325.408C-6.74427 335.975 -6.06657 346.59 -5.45753 356.969C-4.88823 366.363 -4.66418 376.491 -6.23925 386.163C-6.84369 389.914 -7.68087 393.612 -8.93471 397.135C-9.43979 397.797 -9.97438 398.445 -10.5142 399.074C-10.6397 399.228 -10.8512 399.352 -10.8941 399.562C-11.0537 400.229 -10.8264 399.814 -10.6493 400.475C-10.7901 400.591 -10.8087 400.794 -10.7003 400.926C-10.6694 400.944 -10.6399 400.957 -10.6347 400.976C-10.7291 401.168 -10.8222 401.365 -10.9166 401.557C-11.1167 398.731 -11.458 395.999 -11.6691 393.753C-11.8948 391.725 -12.0403 389.822 -12.5134 387.959C-12.5633 387.675 -12.6375 387.398 -12.7361 387.128C-12.8183 386.374 -12.92 385.625 -13.0191 384.886L-13.1604 383.736C-13.4397 381.139 -13.7458 378.539 -14.0519 375.939C-15.027 367.304 -15.808 358.383 -15.6342 349.565C-15.5802 345.665 -15.2293 341.785 -14.7957 337.96C-14.3343 334.123 -13.7429 330.324 -12.7618 326.618C-12.0318 323.511 -11.193 320.635 -10.2502 317.778C-9.34035 314.915 -8.36537 312.08 -7.05023 309.155C-6.82333 308.641 -6.43337 307.375 -5.88686 306.13ZM-4.96404 304.112C-4.91173 303.957 -4.87626 303.817 -4.83296 303.707L-4.34621 304.785L-1.8909 310.585C-0.979872 312.799 -0.262537 315.107 0.31388 317.453C1.16914 320.995 1.7244 324.622 2.16746 328.18C3.34147 337.033 3.5972 345.995 2.88776 354.894C2.32361 361.983 1.11026 369.001 -0.625941 375.914C-1.0656 377.636 -1.50525 379.358 -2.0013 381.064C-2.92183 384.451 -3.9884 387.935 -5.45286 391.197C-5.57407 391.464 -5.67713 391.721 -5.80581 391.979C-5.37051 390.144 -5.01366 388.288 -4.71582 386.406C-3.19403 376.613 -3.42471 366.383 -3.99219 356.878C-4.52913 348.246 -5.07989 339.445 -5.29006 330.653C-5.46091 322.745 -5.33132 314.851 -4.70545 307.079C-4.65109 306.465 -4.49659 305.856 -4.56406 305.254C-4.57287 304.95 -4.6804 304.723 -4.75723 304.436C-4.74865 304.294 -4.83144 304.159 -4.96404 304.112ZM18.2908 337.756C16.4532 343.65 14.4072 349.484 12.1745 355.244C11.8778 355.964 11.6042 356.673 11.3319 357.387C11.944 354.384 12.6618 351.426 13.7373 348.617C14.6746 346.012 15.7948 343.467 16.893 340.917C17.3402 339.865 17.8131 338.811 18.2908 337.756ZM27.5336 244.309C27.6962 245.557 27.8344 246.812 27.975 248.056C24.3821 246.018 20.5809 244.214 16.9928 242.097C15.1608 240.994 13.3556 239.816 11.7012 238.463C10.2736 237.314 8.94733 236.097 7.62106 234.879C4.45563 231.988 1.51945 228.941 -1.22183 225.727C-4.78387 221.531 -8.05001 217.078 -11.2997 212.589C-13.47 209.582 -15.6916 206.578 -17.8901 203.563C-20.1519 200.487 -22.4649 197.492 -24.6803 194.413C-25.1092 193.804 -25.5428 193.197 -25.973 192.583C-22.8336 195.669 -19.6317 198.696 -16.5308 201.813C-7.17336 211.155 2.00896 220.679 11.4253 229.969C15.9366 234.443 21.1121 238.363 25.8258 242.678C26.4045 243.206 26.9691 243.757 27.5336 244.309ZM25.8589 240.878C21.4344 236.844 16.6625 233.128 12.4621 228.92C5.07693 221.477 -2.26479 214.001 -9.51559 206.418C-12.1037 203.679 -14.7112 200.946 -17.2633 198.166C-20.3292 194.81 -23.2374 191.324 -26.2912 187.954C-25.1728 188.571 -24.0465 189.218 -22.9623 189.901C-20.673 191.35 -18.4437 192.925 -16.3758 194.558C-11.2744 198.493 -6.61756 202.772 -2.18987 207.283C2.26992 211.818 6.497 216.591 10.6757 221.534C12.5605 223.748 14.4377 226.011 16.3165 228.299C17.0228 229.302 17.7739 230.278 18.5418 231.239C19.6836 232.662 20.8361 234.067 22.0164 235.459C22.8234 236.566 23.6148 237.693 24.3988 238.811C24.9009 239.499 25.3762 240.184 25.8589 240.878ZM-19.8646 117.023C-19.9763 117.053 -20.0891 117.099 -20.1661 117.161C-20.1432 117.072 -20.0921 116.99 -19.992 116.916C-19.9257 116.873 -19.8983 116.975 -19.8646 117.023ZM-19.6241 116.735C-19.5907 116.762 -19.5842 116.786 -19.5777 116.811C-19.5725 116.83 -19.5929 116.851 -19.6159 116.862C-19.6826 116.886 -19.6496 116.814 -19.6241 116.735ZM90.8975 248.113C88.2335 249.639 85.6442 251.249 83.1571 252.989C78.6348 256.133 74.3862 259.657 70.3709 263.41C63.6825 269.666 57.7341 276.681 52.6576 284.385C48.8797 290.132 45.277 296.066 41.3651 301.76C39.6806 304.201 37.9487 306.582 36.157 308.896C35.2261 310.067 34.3476 311.24 33.4089 312.382C34.1749 310.692 34.8664 308.997 35.5514 307.277C41.5847 299.217 46.6564 290.29 52.828 282.397C54.7791 279.843 56.9113 277.246 59.105 274.606C62.2362 270.819 65.5511 266.998 69.0981 263.48C73.0946 259.482 77.3336 255.825 81.8131 252.969C83.428 251.901 85.0185 250.839 86.6955 249.905C87.8005 249.286 88.9149 248.722 90.0797 248.248C90.1694 248.214 90.497 248.173 90.8975 248.113ZM90.2631 249.574C90.0726 249.855 89.9028 250.134 89.7061 250.411C89.5857 250.584 89.4605 250.758 89.3366 250.937C89.2292 251.081 89.1231 251.229 89.0169 251.377C88.6449 251.893 88.268 252.411 87.8959 252.927C86.67 254.631 85.4697 256.333 84.3019 258.078C83.2962 259.592 82.319 261.135 81.3445 262.688C80.5284 264.016 79.7137 265.349 78.9284 266.695C77.9427 268.381 76.9864 270.08 76.0535 271.788C72.7849 277.706 69.6628 283.704 66.0517 289.432C65.1322 290.918 64.1611 292.387 63.1566 293.828C61.8337 295.713 60.4489 297.543 58.9404 299.28C56.6673 301.916 54.1489 304.335 51.4076 306.486C50.762 306.993 50.1186 307.488 49.4357 307.952C48.4452 308.629 47.417 309.243 46.3502 309.81C44.4129 310.861 42.4043 311.743 40.3595 312.567C38.4237 313.351 36.5006 314.085 34.5623 314.86L34.4071 314.922C35.6387 313.415 36.7468 311.816 37.909 310.244C40.2754 307.063 42.4836 303.758 44.6567 300.399C47.881 295.405 50.9549 290.316 54.1554 285.349C59.0595 277.701 64.8656 270.718 71.3846 264.471C75.3046 260.713 79.5251 257.259 83.8686 254.012C86.0056 252.423 88.1724 250.869 90.3857 249.39L90.2631 249.574ZM16.1184 93.7092C15.9333 95.837 15.7495 97.9695 15.6069 100.081C15.1452 99.6211 14.699 99.1417 14.2706 98.6315C12.4464 96.4692 10.8943 93.9423 9.36875 91.9031C7.87322 90.0538 6.34827 88.2696 4.95158 86.4199C2.81422 83.6332 0.960279 80.7184 -0.726885 77.7069C-2.51151 74.4871 -4.02931 71.0969 -4.91409 67.2505C-5.27998 65.885 -5.58826 64.4624 -5.87449 63.0443C-6.13287 61.6135 -6.3705 60.1823 -6.52839 58.7767L-6.94663 53.2116L-6.9996 51.7309C-6.9411 51.8715 -6.87644 52.0157 -6.83607 52.1663C-6.24004 53.5743 -5.70683 55.02 -5.01586 56.413C-3.03407 60.5436 -0.486677 64.4913 1.54056 68.4221C5.26668 75.4082 8.78132 82.5187 13.1561 89.107C14.1457 90.6231 15.066 92.2307 16.1184 93.7092ZM16.8539 86.7933C16.7182 87.939 16.5899 89.0932 16.4656 90.2619C16.4574 90.4256 16.4297 90.5945 16.402 90.7633C15.9884 90.1137 15.5699 89.4655 15.1501 88.8123C13.7757 86.6962 12.4487 84.5621 11.1589 82.392C8.33042 77.5509 5.68298 72.5883 2.97139 67.6585C0.474546 63.1608 -2.75437 58.6717 -4.97096 53.8593C-5.35563 53.0457 -5.74646 52.2285 -6.02198 51.3753C-6.3974 50.1685 -6.60369 48.9321 -6.77111 47.6853C-6.73303 47.5553 -6.69234 47.435 -6.64288 47.328C-6.59317 47.1636 -6.59276 46.9708 -6.47188 46.9749C-6.32278 46.987 -6.46308 47.2798 -6.30574 47.42C-5.7694 47.9637 -5.1163 48.8461 -4.40255 49.7798C-3.6455 50.6031 -2.94998 51.4688 -2.28006 52.3362C-0.615367 54.4475 0.852078 56.6585 2.42098 58.8787L4.66031 61.8517C6.04008 63.6383 7.28813 65.5747 8.45913 67.5735C9.61104 69.5982 10.6784 71.6769 11.6236 73.7465C12.4886 75.6919 13.2742 77.6324 14.0608 79.5572C14.8361 81.5369 15.6 83.4938 16.3471 85.4655C16.5168 85.9044 16.6829 86.3495 16.8539 86.7933ZM63.7567 115.06C62.3492 118.01 60.8308 120.896 59.4836 123.877C59.1381 124.667 58.8186 125.477 58.4978 126.281C55.876 132.786 53.3713 139.28 49.8904 145.203C48.73 147.17 47.47 149.096 46.0235 150.89C44.613 152.643 42.9975 154.253 41.2649 155.795C37.4115 159.161 32.4013 161.3 27.9457 164.052C30.9758 157.886 34.016 151.659 37.6265 145.754C42.1388 138.394 47.2408 131.407 52.7698 124.926C53.9545 123.535 55.3063 122.204 56.6966 120.92C58.9491 118.869 61.3832 116.951 63.7567 115.06ZM29.6922 154.922C30.5791 152.945 31.524 151.009 32.5218 149.096C33.572 147.106 34.6531 145.134 35.819 143.207C38.174 139.342 40.8406 135.648 43.6489 132.114C45.5455 129.726 47.5014 127.384 49.5141 125.157C51.4346 123.033 53.4652 121.067 55.5743 119.2C57.7258 117.316 59.9342 115.547 62.2518 113.817C62.8272 113.418 63.4091 113.043 64.0244 112.696C64.5769 112.387 65.1311 112.103 65.7222 111.84C65.6992 111.852 65.7018 111.861 65.7044 111.871C65.5939 111.906 65.4812 111.952 65.376 112.006C62.8974 113.311 60.8395 115.466 58.6004 117.295C56.0593 119.377 53.6518 121.569 51.5996 123.921C45.9229 130.396 40.7827 137.435 36.039 144.747C33.8646 148.101 31.7223 151.477 29.6922 154.922ZM60.1265 213.164C59.9388 213.105 59.755 213.061 59.5764 213.036C59.6687 213.011 59.7624 212.991 59.8564 212.992L59.9076 212.989C59.9708 213.05 60.0571 213.1 60.1265 213.164ZM15.3876 21.8986C15.398 21.9375 15.4265 21.9663 15.4123 21.9909C15.4188 22.0152 15.3741 22.0428 15.356 22.0529C15.265 22.0825 15.2892 21.9979 15.3876 21.8986ZM54.9527 24.4328C56.2611 25.3895 57.2061 27.0113 57.6389 28.7235C57.3396 28.0537 56.9674 27.4034 56.5143 26.8009L55.0228 28.6016C53.9834 27.1717 52.1311 26.168 50.2754 26.6288C49.1998 26.891 48.6903 28.4494 48.4584 29.3917C48.38 29.7409 48.3299 30.0981 48.3504 30.4467C48.3475 30.7079 48.3883 30.9574 48.411 31.217C48.5733 32.0172 48.9317 32.791 49.4468 33.4499L49.3545 33.4746C49.312 33.4912 49.244 33.5094 49.1967 33.5273L49.0438 33.5787C48.747 32.8405 48.5322 32.0387 48.411 31.217C48.364 30.9639 48.3462 30.7031 48.3504 30.4467C48.2122 28.3952 48.6916 26.3552 49.9077 25.1596C51.1226 23.959 53.3846 24.2176 54.9037 24.4251C54.9293 24.4234 54.9501 24.4231 54.9527 24.4328ZM57.6389 28.7235C58.4327 30.5004 58.6233 32.4754 57.7737 34.4167C56.9354 36.3809 53.1228 37.5275 51.2197 36.3343C51.0754 36.2427 50.9223 36.1379 50.7935 36.0266C50.8819 35.9873 50.9703 35.9479 51.0588 35.9086C51.3898 35.7835 51.6446 35.5485 51.8056 35.2554C52.1849 35.3881 52.5551 35.4868 52.9512 35.5266C57.3847 35.9584 58.5374 32.1547 57.6389 28.7235ZM55.0228 28.6016C56.2314 30.2934 56.3103 32.59 53.8621 33.8137C50.6819 35.4158 50.3954 29.9925 52.2884 28.4072C52.7481 28.0236 53.2954 29.0748 53.7091 29.5109C53.7828 29.6109 53.863 29.7353 53.9701 29.8628L55.0228 28.6016ZM53.9701 29.8628C54.8158 31.0946 55.7078 33.7046 53.2628 33.2295C52.773 33.1316 52.0925 32.866 51.633 32.687L53.9701 29.8628Z" fill="#28221E"/>
</g>
</svg>
