<svg width="1353" height="568" viewBox="0 0 1353 568" fill="none" xmlns="http://www.w3.org/2000/svg">
<g clip-path="url(#clip0_1_1418)">
<rect width="1353" height="568" rx="29" fill="#28221E"/>
<path d="M607.593 76C606.421 76 605.337 75.7119 604.341 75.1357C603.354 74.5498 602.568 73.7637 601.982 72.7773C601.406 71.7812 601.118 70.7021 601.118 69.54C601.118 68.3779 601.406 67.3037 601.982 66.3174C602.568 65.3311 603.359 64.5498 604.355 63.9736C605.352 63.3877 606.431 63.0947 607.593 63.0947H614.038V69.54C614.038 70.7119 613.75 71.791 613.174 72.7773C612.598 73.7637 611.812 74.5498 610.815 75.1357C609.829 75.7119 608.755 76 607.593 76ZM607.593 72.0742C608.052 72.0742 608.472 71.9619 608.853 71.7373C609.233 71.5127 609.536 71.2051 609.761 70.8145C609.985 70.4238 610.098 69.999 610.098 69.54V67.0059H607.593C607.134 67.0059 606.709 67.123 606.318 67.3574C605.928 67.582 605.62 67.8896 605.396 68.2803C605.171 68.6611 605.059 69.0811 605.059 69.54C605.059 69.999 605.171 70.4238 605.396 70.8145C605.62 71.2051 605.928 71.5127 606.318 71.7373C606.709 71.9619 607.134 72.0742 607.593 72.0742ZM614.609 79.9697L617.349 78.1387V64.3691L621.304 63.373V80.2334L616.792 83.251L614.609 79.9697ZM623.809 76C623.047 76 622.285 75.707 621.523 75.1211C620.771 74.5352 620.151 73.8027 619.663 72.9238C619.185 72.0352 618.945 71.1904 618.945 70.3896L621.304 69.54C621.304 69.999 621.416 70.4238 621.641 70.8145C621.865 71.1953 622.168 71.5029 622.549 71.7373C622.93 71.9619 623.35 72.0742 623.809 72.0742L624.497 74.0518L623.809 76ZM615.737 57.2646H619.883V54.3936L623.076 55.4043V60.3701H615.737V57.2646ZM623.105 74.0518L623.794 72.0742H626.006C626.465 72.0742 626.885 71.9619 627.266 71.7373C627.656 71.5127 627.964 71.2051 628.188 70.8145C628.423 70.4238 628.54 69.999 628.54 69.54V64.3545L632.451 63.373V69.54C632.451 70.7119 632.163 71.791 631.587 72.7773C631.011 73.7637 630.225 74.5498 629.229 75.1357C628.242 75.7119 627.168 76 626.006 76H623.794L623.105 74.0518ZM631.045 82.1084H623.706V78.9883H631.045V82.1084ZM636.348 79.9844L642.368 76H640.61C639.692 75.9902 638.765 75.7021 637.827 75.1357C636.899 74.5693 636.133 73.793 635.527 72.8066C634.922 71.8203 634.619 70.7412 634.619 69.5693C634.619 68.4072 634.907 67.3281 635.483 66.332C636.069 65.3359 636.855 64.5498 637.842 63.9736C638.828 63.3877 639.902 63.0947 641.064 63.0947H647.539V77.2744L638.53 83.2656L636.348 79.9844ZM643.613 72.0742V67.0059H641.064C640.605 67.0059 640.181 67.123 639.79 67.3574C639.409 67.582 639.106 67.8896 638.882 68.2803C638.657 68.6611 638.545 69.0762 638.545 69.5254C638.545 69.9844 638.657 70.4092 638.882 70.7998C639.106 71.1904 639.409 71.5029 639.79 71.7373C640.181 71.9619 640.605 72.0742 641.064 72.0742H643.613ZM659.888 76C658.716 76 657.632 75.7119 656.636 75.1357C655.649 74.5498 654.863 73.7637 654.277 72.7773C653.701 71.7812 653.413 70.7021 653.413 69.54V64.3545L657.354 63.373V69.54C657.354 69.999 657.466 70.4238 657.69 70.8145C657.925 71.2051 658.232 71.5127 658.613 71.7373C659.004 71.9619 659.429 72.0742 659.888 72.0742H673.921C674.38 72.0742 674.8 71.9619 675.181 71.7373C675.571 71.5127 675.879 71.2051 676.104 70.8145C676.338 70.4238 676.455 69.999 676.455 69.54V64.3545L680.381 63.373V69.54C680.381 70.7119 680.088 71.791 679.502 72.7773C678.926 73.7637 678.145 74.5498 677.158 75.1357C676.172 75.7119 675.093 76 673.921 76H659.888ZM663.257 63.6367H670.596V66.7568H663.257V63.6367ZM689.771 76C688.599 76 687.515 75.7119 686.519 75.1357C685.532 74.5498 684.746 73.7637 684.16 72.7773C683.584 71.7812 683.296 70.7021 683.296 69.54V56.752L687.222 55.7705V69.54C687.222 69.999 687.334 70.4238 687.559 70.8145C687.793 71.2051 688.105 71.5127 688.496 71.7373C688.887 71.9619 689.312 72.0742 689.771 72.0742L690.459 74.0518L689.771 76ZM689.082 74.0518L689.785 72.0742H692.305C692.305 72.0547 692.256 71.9521 692.158 71.7666C691.973 71.4541 691.812 71.1221 691.675 70.7705C691.548 70.4189 691.484 70.0088 691.484 69.54C691.484 68.3779 691.772 67.3037 692.349 66.3174C692.935 65.3213 693.721 64.5352 694.707 63.959C695.703 63.3828 696.787 63.0947 697.959 63.0947H704.404V76H689.785L689.082 74.0518ZM700.479 72.0742V67.0205H697.959C697.5 67.0205 697.075 67.1328 696.685 67.3574C696.304 67.582 695.996 67.8896 695.762 68.2803C695.537 68.6611 695.425 69.0811 695.425 69.54C695.425 69.999 695.537 70.4238 695.762 70.8145C695.996 71.2051 696.304 71.5127 696.685 71.7373C697.075 71.9619 697.5 72.0742 697.959 72.0742H700.479ZM702.28 72.0742H705.986L706.675 73.9932L705.986 76H702.28V72.0742ZM697.271 56.7666H700.654V59.96H697.271V56.7666ZM705.928 76L705.283 74.0518L705.942 72.0742H705.986C706.445 72.0742 706.865 71.9619 707.246 71.7373C707.637 71.5127 707.944 71.2051 708.169 70.8145C708.403 70.4238 708.521 69.999 708.521 69.54V64.3545L712.446 63.373V69.54C712.446 69.999 712.559 70.4238 712.783 70.8145C713.008 71.2051 713.311 71.5127 713.691 71.7373C714.082 71.9619 714.507 72.0742 714.966 72.0742L715.669 74.0518L714.966 76C714.097 76 713.267 75.8291 712.476 75.4873C711.694 75.1357 711.03 74.6523 710.483 74.0371C709.917 74.6523 709.243 75.1357 708.462 75.4873C707.69 75.8291 706.865 76 705.986 76H705.928ZM710.161 82.1084H702.822V78.9883H710.161V82.1084ZM714.277 74.0518L714.98 72.0742H717.5C717.5 72.0547 717.451 71.9521 717.354 71.7666C717.168 71.4541 717.007 71.1221 716.87 70.7705C716.743 70.4189 716.68 70.0088 716.68 69.54C716.68 68.3779 716.968 67.3037 717.544 66.3174C718.13 65.3213 718.916 64.5352 719.902 63.959C720.898 63.3828 721.982 63.0947 723.154 63.0947H729.6V76H714.98L714.277 74.0518ZM725.674 72.0742V67.0205H723.154C722.695 67.0205 722.271 67.1328 721.88 67.3574C721.499 67.582 721.191 67.8896 720.957 68.2803C720.732 68.6611 720.62 69.0811 720.62 69.54C720.62 69.999 720.732 70.4238 720.957 70.8145C721.191 71.2051 721.499 71.5127 721.88 71.7373C722.271 71.9619 722.695 72.0742 723.154 72.0742H725.674ZM727.476 72.0742H731.182L731.87 73.9932L731.182 76H727.476V72.0742ZM722.466 56.7666H725.85V59.96H722.466V56.7666ZM730.479 74.0518L731.182 72.0742H741.992V69.54C741.992 69.0811 741.88 68.6611 741.655 68.2803C741.431 67.8896 741.123 67.582 740.732 67.3574C740.352 67.1328 739.932 67.0205 739.473 67.0205H733.32L734.272 63.0947H739.473C740.645 63.0947 741.724 63.3828 742.71 63.959C743.706 64.5352 744.492 65.3164 745.068 66.3027C745.654 67.2891 745.947 68.3682 745.947 69.54V76H731.182L730.479 74.0518ZM743.999 72.0742H747.617L748.291 74.0518L747.617 76H744.028L743.999 72.0742ZM735.532 56.8838H738.916V60.0771H735.532V56.8838ZM747.515 76L746.914 74.0518L747.559 72.0742H747.617C748.076 72.0742 748.496 71.9619 748.877 71.7373C749.258 71.5127 749.561 71.2051 749.785 70.8145C750.01 70.4238 750.122 69.999 750.122 69.54V64.3545L754.077 63.373V69.54C754.077 70.7021 753.784 71.7812 753.198 72.7773C752.622 73.7637 751.836 74.5498 750.84 75.1357C749.854 75.7119 748.779 76 747.617 76H747.515ZM747.031 57.2061H754.37V60.3262H747.031V57.2061Z" fill="white"/>
<g opacity="0.15">
<mask id="mask0_1_1418" style="mask-type:alpha" maskUnits="userSpaceOnUse" x="-429" y="55" width="1146" height="170">
<path d="M58.2827 89.3574L72.9976 74.6425" stroke="white" stroke-width="3" stroke-linecap="round" stroke-linejoin="round"/>
<path d="M59.205 78.3325C60.7335 78.3325 61.9725 77.0935 61.9725 75.565C61.9725 74.0366 60.7335 72.7975 59.205 72.7975C57.6766 72.7975 56.4375 74.0366 56.4375 75.565C56.4375 77.0935 57.6766 78.3325 59.205 78.3325Z" stroke="white" stroke-width="3" stroke-linecap="round" stroke-linejoin="round"/>
<path d="M73.92 91.2025C75.4485 91.2025 76.6876 89.9634 76.6876 88.4349C76.6876 86.9065 75.4485 85.6675 73.92 85.6675C72.3916 85.6675 71.1526 86.9065 71.1526 88.4349C71.1526 89.9634 72.3916 91.2025 73.92 91.2025Z" stroke="white" stroke-width="3" stroke-linecap="round" stroke-linejoin="round"/>
<path d="M66 104.5C78.4264 104.5 88.5 94.4264 88.5 82C88.5 69.5736 78.4264 59.5 66 59.5C53.5736 59.5 43.5 69.5736 43.5 82C43.5 94.4264 53.5736 104.5 66 104.5Z" stroke="white" stroke-width="3" stroke-linecap="round" stroke-linejoin="round"/>
<path d="M222 104.5C234.426 104.5 244.5 94.4264 244.5 82C244.5 69.5736 234.426 59.5 222 59.5C209.574 59.5 199.5 69.5736 199.5 82C199.5 94.4264 209.574 104.5 222 104.5Z" stroke="white" stroke-width="3" stroke-linecap="round" stroke-linejoin="round"/>
<path d="M215.25 88.75L228.75 75.25" stroke="white" stroke-width="3" stroke-linecap="round" stroke-linejoin="round"/>
<path d="M227.613 87.625H227.633" stroke="white" stroke-width="3" stroke-linecap="round" stroke-linejoin="round"/>
<path d="M216.363 76.375H216.383" stroke="white" stroke-width="3" stroke-linecap="round" stroke-linejoin="round"/>
<path d="M359.975 87.986L356.555 84.5659C355.16 83.1709 355.16 80.8759 356.555 79.4809L359.975 76.0609C360.56 75.4759 361.033 74.3284 361.033 73.5184V68.6808C361.033 66.7008 362.653 65.0809 364.633 65.0809H369.47C370.28 65.0809 371.428 64.6084 372.013 64.0234L375.433 60.6034C376.828 59.2084 379.123 59.2084 380.518 60.6034L383.938 64.0234C384.523 64.6084 385.67 65.0809 386.48 65.0809H391.318C393.298 65.0809 394.918 66.7008 394.918 68.6808V73.5184C394.918 74.3284 395.39 75.4759 395.975 76.0609L399.395 79.4809C400.79 80.8759 400.79 83.1709 399.395 84.5659L395.975 87.986C395.39 88.571 394.918 89.7185 394.918 90.5285V95.3658C394.918 97.3458 393.298 98.966 391.318 98.966H386.48C385.67 98.966 384.523 99.4384 383.938 100.023L380.518 103.443C379.123 104.838 376.828 104.838 375.433 103.443L372.013 100.023C371.428 99.4384 370.28 98.966 369.47 98.966H364.633C362.653 98.966 361.033 97.3458 361.033 95.3658V90.5285C361.033 89.696 360.56 88.5485 359.975 87.986Z" stroke="white" stroke-width="3" stroke-linecap="round" stroke-linejoin="round"/>
<path d="M371.25 88.75L384.75 75.25" stroke="white" stroke-width="3" stroke-linecap="round" stroke-linejoin="round"/>
<path d="M383.613 87.625H383.633" stroke="white" stroke-width="3" stroke-linecap="round" stroke-linejoin="round"/>
<path d="M372.363 76.375H372.383" stroke="white" stroke-width="3" stroke-linecap="round" stroke-linejoin="round"/>
<path d="M527.25 59.5H540.75C552 59.5 556.5 64 556.5 75.25V88.75C556.5 100 552 104.5 540.75 104.5H527.25C516 104.5 511.5 100 511.5 88.75V75.25C511.5 64 516 59.5 527.25 59.5Z" stroke="white" stroke-width="3" stroke-linecap="round" stroke-linejoin="round"/>
<path d="M526.283 89.3574L540.998 74.6425" stroke="white" stroke-width="3" stroke-linecap="round" stroke-linejoin="round"/>
<path d="M527.205 78.3325C528.733 78.3325 529.972 77.0935 529.972 75.565C529.972 74.0366 528.733 72.7975 527.205 72.7975C525.677 72.7975 524.438 74.0366 524.438 75.565C524.438 77.0935 525.677 78.3325 527.205 78.3325Z" stroke="white" stroke-width="3" stroke-linecap="round" stroke-linejoin="round"/>
<path d="M541.92 91.2025C543.448 91.2025 544.688 89.9634 544.688 88.4349C544.688 86.9065 543.448 85.6675 541.92 85.6675C540.392 85.6675 539.153 86.9065 539.153 88.4349C539.153 89.9634 540.392 91.2025 541.92 91.2025Z" stroke="white" stroke-width="3" stroke-linecap="round" stroke-linejoin="round"/>
<path d="M682.283 89.3574L696.998 74.6425" stroke="white" stroke-width="3" stroke-linecap="round" stroke-linejoin="round"/>
<path d="M683.205 78.3325C684.733 78.3325 685.972 77.0935 685.972 75.565C685.972 74.0366 684.733 72.7975 683.205 72.7975C681.677 72.7975 680.438 74.0366 680.438 75.565C680.438 77.0935 681.677 78.3325 683.205 78.3325Z" stroke="white" stroke-width="3" stroke-linecap="round" stroke-linejoin="round"/>
<path d="M697.92 91.2025C699.448 91.2025 700.688 89.9634 700.688 88.4349C700.688 86.9065 699.448 85.6675 697.92 85.6675C696.392 85.6675 695.153 86.9065 695.153 88.4349C695.153 89.9634 696.392 91.2025 697.92 91.2025Z" stroke="white" stroke-width="3" stroke-linecap="round" stroke-linejoin="round"/>
<path d="M690 104.5C702.426 104.5 712.5 94.4264 712.5 82C712.5 69.5736 702.426 59.5 690 59.5C677.574 59.5 667.5 69.5736 667.5 82C667.5 94.4264 677.574 104.5 690 104.5Z" stroke="white" stroke-width="3" stroke-linecap="round" stroke-linejoin="round"/>
<path d="M58.2827 205.357L72.9976 190.643" stroke="white" stroke-width="3" stroke-linecap="round" stroke-linejoin="round"/>
<path d="M59.205 194.333C60.7335 194.333 61.9725 193.094 61.9725 191.565C61.9725 190.037 60.7335 188.798 59.205 188.798C57.6766 188.798 56.4375 190.037 56.4375 191.565C56.4375 193.094 57.6766 194.333 59.205 194.333Z" stroke="white" stroke-width="3" stroke-linecap="round" stroke-linejoin="round"/>
<path d="M73.92 207.203C75.4485 207.203 76.6876 205.963 76.6876 204.435C76.6876 202.907 75.4485 201.668 73.92 201.668C72.3916 201.668 71.1526 202.907 71.1526 204.435C71.1526 205.963 72.3916 207.203 73.92 207.203Z" stroke="white" stroke-width="3" stroke-linecap="round" stroke-linejoin="round"/>
<path d="M66 220.5C78.4264 220.5 88.5 210.426 88.5 198C88.5 185.574 78.4264 175.5 66 175.5C53.5736 175.5 43.5 185.574 43.5 198C43.5 210.426 53.5736 220.5 66 220.5Z" stroke="white" stroke-width="3" stroke-linecap="round" stroke-linejoin="round"/>
<path d="M222 220.5C234.426 220.5 244.5 210.426 244.5 198C244.5 185.574 234.426 175.5 222 175.5C209.574 175.5 199.5 185.574 199.5 198C199.5 210.426 209.574 220.5 222 220.5Z" stroke="white" stroke-width="3" stroke-linecap="round" stroke-linejoin="round"/>
<path d="M215.25 204.75L228.75 191.25" stroke="white" stroke-width="3" stroke-linecap="round" stroke-linejoin="round"/>
<path d="M227.613 203.625H227.633" stroke="white" stroke-width="3" stroke-linecap="round" stroke-linejoin="round"/>
<path d="M216.363 192.375H216.383" stroke="white" stroke-width="3" stroke-linecap="round" stroke-linejoin="round"/>
<path d="M359.975 203.986L356.555 200.566C355.16 199.171 355.16 196.876 356.555 195.481L359.975 192.061C360.56 191.476 361.033 190.328 361.033 189.518V184.681C361.033 182.701 362.653 181.081 364.633 181.081H369.47C370.28 181.081 371.428 180.608 372.013 180.023L375.433 176.603C376.828 175.208 379.123 175.208 380.518 176.603L383.938 180.023C384.523 180.608 385.67 181.081 386.48 181.081H391.318C393.298 181.081 394.918 182.701 394.918 184.681V189.518C394.918 190.328 395.39 191.476 395.975 192.061L399.395 195.481C400.79 196.876 400.79 199.171 399.395 200.566L395.975 203.986C395.39 204.571 394.918 205.718 394.918 206.528V211.366C394.918 213.346 393.298 214.966 391.318 214.966H386.48C385.67 214.966 384.523 215.438 383.938 216.023L380.518 219.443C379.123 220.838 376.828 220.838 375.433 219.443L372.013 216.023C371.428 215.438 370.28 214.966 369.47 214.966H364.633C362.653 214.966 361.033 213.346 361.033 211.366V206.528C361.033 205.696 360.56 204.548 359.975 203.986Z" stroke="white" stroke-width="3" stroke-linecap="round" stroke-linejoin="round"/>
<path d="M371.25 204.75L384.75 191.25" stroke="white" stroke-width="3" stroke-linecap="round" stroke-linejoin="round"/>
<path d="M383.613 203.625H383.633" stroke="white" stroke-width="3" stroke-linecap="round" stroke-linejoin="round"/>
<path d="M372.363 192.375H372.383" stroke="white" stroke-width="3" stroke-linecap="round" stroke-linejoin="round"/>
<path d="M527.25 175.5H540.75C552 175.5 556.5 180 556.5 191.25V204.75C556.5 216 552 220.5 540.75 220.5H527.25C516 220.5 511.5 216 511.5 204.75V191.25C511.5 180 516 175.5 527.25 175.5Z" stroke="white" stroke-width="3" stroke-linecap="round" stroke-linejoin="round"/>
<path d="M526.283 205.357L540.998 190.643" stroke="white" stroke-width="3" stroke-linecap="round" stroke-linejoin="round"/>
<path d="M527.205 194.333C528.733 194.333 529.972 193.094 529.972 191.565C529.972 190.037 528.733 188.798 527.205 188.798C525.677 188.798 524.438 190.037 524.438 191.565C524.438 193.094 525.677 194.333 527.205 194.333Z" stroke="white" stroke-width="3" stroke-linecap="round" stroke-linejoin="round"/>
<path d="M541.92 207.203C543.448 207.203 544.688 205.963 544.688 204.435C544.688 202.907 543.448 201.668 541.92 201.668C540.392 201.668 539.153 202.907 539.153 204.435C539.153 205.963 540.392 207.203 541.92 207.203Z" stroke="white" stroke-width="3" stroke-linecap="round" stroke-linejoin="round"/>
<path d="M682.283 205.357L696.998 190.643" stroke="white" stroke-width="3" stroke-linecap="round" stroke-linejoin="round"/>
<path d="M683.205 194.333C684.733 194.333 685.972 193.094 685.972 191.565C685.972 190.037 684.733 188.798 683.205 188.798C681.677 188.798 680.438 190.037 680.438 191.565C680.438 193.094 681.677 194.333 683.205 194.333Z" stroke="white" stroke-width="3" stroke-linecap="round" stroke-linejoin="round"/>
<path d="M697.92 207.203C699.448 207.203 700.688 205.963 700.688 204.435C700.688 202.907 699.448 201.668 697.92 201.668C696.392 201.668 695.153 202.907 695.153 204.435C695.153 205.963 696.392 207.203 697.92 207.203Z" stroke="white" stroke-width="3" stroke-linecap="round" stroke-linejoin="round"/>
<path d="M690 220.5C702.426 220.5 712.5 210.426 712.5 198C712.5 185.574 702.426 175.5 690 175.5C677.574 175.5 667.5 185.574 667.5 198C667.5 210.426 677.574 220.5 690 220.5Z" stroke="white" stroke-width="3" stroke-linecap="round" stroke-linejoin="round"/>
</mask>
<g mask="url(#mask0_1_1418)">
<rect x="-533" y="3" width="1353" height="396" fill="url(#paint0_linear_1_1418)"/>
</g>
</g>
<g opacity="0.15">
<mask id="mask1_1_1418" style="mask-type:alpha" maskUnits="userSpaceOnUse" x="632" y="55" width="1147" height="170">
<path d="M1290.72 89.3574L1276 74.6425" stroke="white" stroke-width="3" stroke-linecap="round" stroke-linejoin="round"/>
<path d="M1289.8 78.3325C1288.27 78.3325 1287.03 77.0935 1287.03 75.565C1287.03 74.0366 1288.27 72.7975 1289.8 72.7975C1291.32 72.7975 1292.56 74.0366 1292.56 75.565C1292.56 77.0935 1291.32 78.3325 1289.8 78.3325Z" stroke="white" stroke-width="3" stroke-linecap="round" stroke-linejoin="round"/>
<path d="M1275.08 91.2025C1273.55 91.2025 1272.31 89.9634 1272.31 88.4349C1272.31 86.9065 1273.55 85.6675 1275.08 85.6675C1276.61 85.6675 1277.85 86.9065 1277.85 88.4349C1277.85 89.9634 1276.61 91.2025 1275.08 91.2025Z" stroke="white" stroke-width="3" stroke-linecap="round" stroke-linejoin="round"/>
<path d="M1283 104.5C1270.57 104.5 1260.5 94.4264 1260.5 82C1260.5 69.5736 1270.57 59.5 1283 59.5C1295.43 59.5 1305.5 69.5736 1305.5 82C1305.5 94.4264 1295.43 104.5 1283 104.5Z" stroke="white" stroke-width="3" stroke-linecap="round" stroke-linejoin="round"/>
<path d="M1127 104.5C1114.57 104.5 1104.5 94.4264 1104.5 82C1104.5 69.5736 1114.57 59.5 1127 59.5C1139.43 59.5 1149.5 69.5736 1149.5 82C1149.5 94.4264 1139.43 104.5 1127 104.5Z" stroke="white" stroke-width="3" stroke-linecap="round" stroke-linejoin="round"/>
<path d="M1133.75 88.75L1120.25 75.25" stroke="white" stroke-width="3" stroke-linecap="round" stroke-linejoin="round"/>
<path d="M1121.39 87.625H1121.37" stroke="white" stroke-width="3" stroke-linecap="round" stroke-linejoin="round"/>
<path d="M1132.64 76.375H1132.62" stroke="white" stroke-width="3" stroke-linecap="round" stroke-linejoin="round"/>
<path d="M989.025 87.986L992.445 84.5659C993.84 83.1709 993.84 80.8759 992.445 79.4809L989.025 76.0609C988.44 75.4759 987.968 74.3284 987.968 73.5184V68.6808C987.968 66.7008 986.348 65.0809 984.368 65.0809H979.53C978.72 65.0809 977.573 64.6084 976.988 64.0234L973.568 60.6034C972.173 59.2084 969.878 59.2084 968.483 60.6034L965.063 64.0234C964.478 64.6084 963.33 65.0809 962.52 65.0809H957.683C955.703 65.0809 954.083 66.7008 954.083 68.6808V73.5184C954.083 74.3284 953.61 75.4759 953.025 76.0609L949.605 79.4809C948.21 80.8759 948.21 83.1709 949.605 84.5659L953.025 87.986C953.61 88.571 954.083 89.7185 954.083 90.5285V95.3658C954.083 97.3458 955.703 98.966 957.683 98.966H962.52C963.33 98.966 964.478 99.4384 965.063 100.023L968.483 103.443C969.878 104.838 972.173 104.838 973.568 103.443L976.988 100.023C977.573 99.4384 978.72 98.966 979.53 98.966H984.368C986.348 98.966 987.968 97.3458 987.968 95.3658V90.5285C987.968 89.696 988.44 88.5485 989.025 87.986Z" stroke="white" stroke-width="3" stroke-linecap="round" stroke-linejoin="round"/>
<path d="M977.75 88.75L964.25 75.25" stroke="white" stroke-width="3" stroke-linecap="round" stroke-linejoin="round"/>
<path d="M965.388 87.625H965.368" stroke="white" stroke-width="3" stroke-linecap="round" stroke-linejoin="round"/>
<path d="M976.638 76.375H976.618" stroke="white" stroke-width="3" stroke-linecap="round" stroke-linejoin="round"/>
<path d="M821.75 59.5H808.25C797 59.5 792.5 64 792.5 75.25V88.75C792.5 100 797 104.5 808.25 104.5H821.75C833 104.5 837.5 100 837.5 88.75V75.25C837.5 64 833 59.5 821.75 59.5Z" stroke="white" stroke-width="3" stroke-linecap="round" stroke-linejoin="round"/>
<path d="M822.718 89.3574L808.003 74.6425" stroke="white" stroke-width="3" stroke-linecap="round" stroke-linejoin="round"/>
<path d="M821.795 78.3325C820.267 78.3325 819.028 77.0935 819.028 75.565C819.028 74.0366 820.267 72.7975 821.795 72.7975C823.324 72.7975 824.563 74.0366 824.563 75.565C824.563 77.0935 823.324 78.3325 821.795 78.3325Z" stroke="white" stroke-width="3" stroke-linecap="round" stroke-linejoin="round"/>
<path d="M807.08 91.2025C805.552 91.2025 804.313 89.9634 804.313 88.4349C804.313 86.9065 805.552 85.6675 807.08 85.6675C808.609 85.6675 809.848 86.9065 809.848 88.4349C809.848 89.9634 808.609 91.2025 807.08 91.2025Z" stroke="white" stroke-width="3" stroke-linecap="round" stroke-linejoin="round"/>
<path d="M666.718 89.3574L652.003 74.6425" stroke="white" stroke-width="3" stroke-linecap="round" stroke-linejoin="round"/>
<path d="M665.795 78.3325C664.267 78.3325 663.028 77.0935 663.028 75.565C663.028 74.0366 664.267 72.7975 665.795 72.7975C667.324 72.7975 668.563 74.0366 668.563 75.565C668.563 77.0935 667.324 78.3325 665.795 78.3325Z" stroke="white" stroke-width="3" stroke-linecap="round" stroke-linejoin="round"/>
<path d="M651.08 91.2025C649.552 91.2025 648.313 89.9634 648.313 88.4349C648.313 86.9065 649.552 85.6675 651.08 85.6675C652.609 85.6675 653.848 86.9065 653.848 88.4349C653.848 89.9634 652.609 91.2025 651.08 91.2025Z" stroke="white" stroke-width="3" stroke-linecap="round" stroke-linejoin="round"/>
<path d="M659 104.5C646.574 104.5 636.5 94.4264 636.5 82C636.5 69.5736 646.574 59.5 659 59.5C671.427 59.5 681.5 69.5736 681.5 82C681.5 94.4264 671.427 104.5 659 104.5Z" stroke="white" stroke-width="3" stroke-linecap="round" stroke-linejoin="round"/>
<path d="M1290.72 205.357L1276 190.643" stroke="white" stroke-width="3" stroke-linecap="round" stroke-linejoin="round"/>
<path d="M1289.8 194.333C1288.27 194.333 1287.03 193.094 1287.03 191.565C1287.03 190.037 1288.27 188.798 1289.8 188.798C1291.32 188.798 1292.56 190.037 1292.56 191.565C1292.56 193.094 1291.32 194.333 1289.8 194.333Z" stroke="white" stroke-width="3" stroke-linecap="round" stroke-linejoin="round"/>
<path d="M1275.08 207.203C1273.55 207.203 1272.31 205.963 1272.31 204.435C1272.31 202.907 1273.55 201.668 1275.08 201.668C1276.61 201.668 1277.85 202.907 1277.85 204.435C1277.85 205.963 1276.61 207.203 1275.08 207.203Z" stroke="white" stroke-width="3" stroke-linecap="round" stroke-linejoin="round"/>
<path d="M1283 220.5C1270.57 220.5 1260.5 210.426 1260.5 198C1260.5 185.574 1270.57 175.5 1283 175.5C1295.43 175.5 1305.5 185.574 1305.5 198C1305.5 210.426 1295.43 220.5 1283 220.5Z" stroke="white" stroke-width="3" stroke-linecap="round" stroke-linejoin="round"/>
<path d="M1127 220.5C1114.57 220.5 1104.5 210.426 1104.5 198C1104.5 185.574 1114.57 175.5 1127 175.5C1139.43 175.5 1149.5 185.574 1149.5 198C1149.5 210.426 1139.43 220.5 1127 220.5Z" stroke="white" stroke-width="3" stroke-linecap="round" stroke-linejoin="round"/>
<path d="M1133.75 204.75L1120.25 191.25" stroke="white" stroke-width="3" stroke-linecap="round" stroke-linejoin="round"/>
<path d="M1121.39 203.625H1121.37" stroke="white" stroke-width="3" stroke-linecap="round" stroke-linejoin="round"/>
<path d="M1132.64 192.375H1132.62" stroke="white" stroke-width="3" stroke-linecap="round" stroke-linejoin="round"/>
<path d="M989.025 203.986L992.445 200.566C993.84 199.171 993.84 196.876 992.445 195.481L989.025 192.061C988.44 191.476 987.968 190.328 987.968 189.518V184.681C987.968 182.701 986.348 181.081 984.368 181.081H979.53C978.72 181.081 977.573 180.608 976.988 180.023L973.568 176.603C972.173 175.208 969.878 175.208 968.483 176.603L965.063 180.023C964.478 180.608 963.33 181.081 962.52 181.081H957.683C955.703 181.081 954.083 182.701 954.083 184.681V189.518C954.083 190.328 953.61 191.476 953.025 192.061L949.605 195.481C948.21 196.876 948.21 199.171 949.605 200.566L953.025 203.986C953.61 204.571 954.083 205.718 954.083 206.528V211.366C954.083 213.346 955.703 214.966 957.683 214.966H962.52C963.33 214.966 964.478 215.438 965.063 216.023L968.483 219.443C969.878 220.838 972.173 220.838 973.568 219.443L976.988 216.023C977.573 215.438 978.72 214.966 979.53 214.966H984.368C986.348 214.966 987.968 213.346 987.968 211.366V206.528C987.968 205.696 988.44 204.548 989.025 203.986Z" stroke="white" stroke-width="3" stroke-linecap="round" stroke-linejoin="round"/>
<path d="M977.75 204.75L964.25 191.25" stroke="white" stroke-width="3" stroke-linecap="round" stroke-linejoin="round"/>
<path d="M965.388 203.625H965.368" stroke="white" stroke-width="3" stroke-linecap="round" stroke-linejoin="round"/>
<path d="M976.638 192.375H976.618" stroke="white" stroke-width="3" stroke-linecap="round" stroke-linejoin="round"/>
<path d="M821.75 175.5H808.25C797 175.5 792.5 180 792.5 191.25V204.75C792.5 216 797 220.5 808.25 220.5H821.75C833 220.5 837.5 216 837.5 204.75V191.25C837.5 180 833 175.5 821.75 175.5Z" stroke="white" stroke-width="3" stroke-linecap="round" stroke-linejoin="round"/>
<path d="M822.718 205.357L808.003 190.643" stroke="white" stroke-width="3" stroke-linecap="round" stroke-linejoin="round"/>
<path d="M821.795 194.333C820.267 194.333 819.028 193.094 819.028 191.565C819.028 190.037 820.267 188.798 821.795 188.798C823.324 188.798 824.563 190.037 824.563 191.565C824.563 193.094 823.324 194.333 821.795 194.333Z" stroke="white" stroke-width="3" stroke-linecap="round" stroke-linejoin="round"/>
<path d="M807.08 207.203C805.552 207.203 804.313 205.963 804.313 204.435C804.313 202.907 805.552 201.668 807.08 201.668C808.609 201.668 809.848 202.907 809.848 204.435C809.848 205.963 808.609 207.203 807.08 207.203Z" stroke="white" stroke-width="3" stroke-linecap="round" stroke-linejoin="round"/>
<path d="M666.718 205.357L652.003 190.643" stroke="white" stroke-width="3" stroke-linecap="round" stroke-linejoin="round"/>
<path d="M665.795 194.333C664.267 194.333 663.028 193.094 663.028 191.565C663.028 190.037 664.267 188.798 665.795 188.798C667.324 188.798 668.563 190.037 668.563 191.565C668.563 193.094 667.324 194.333 665.795 194.333Z" stroke="white" stroke-width="3" stroke-linecap="round" stroke-linejoin="round"/>
<path d="M651.08 207.203C649.552 207.203 648.313 205.963 648.313 204.435C648.313 202.907 649.552 201.668 651.08 201.668C652.609 201.668 653.848 202.907 653.848 204.435C653.848 205.963 652.609 207.203 651.08 207.203Z" stroke="white" stroke-width="3" stroke-linecap="round" stroke-linejoin="round"/>
<path d="M659 220.5C646.574 220.5 636.5 210.426 636.5 198C636.5 185.574 646.574 175.5 659 175.5C671.427 175.5 681.5 185.574 681.5 198C681.5 210.426 671.427 220.5 659 220.5Z" stroke="white" stroke-width="3" stroke-linecap="round" stroke-linejoin="round"/>
</mask>
<g mask="url(#mask1_1_1418)">
<rect width="1353" height="396" transform="matrix(-1 0 0 1 1882 3)" fill="url(#paint1_linear_1_1418)"/>
</g>
</g>
</g>
<defs>
<linearGradient id="paint0_linear_1_1418" x1="-533" y1="201" x2="820" y2="201" gradientUnits="userSpaceOnUse">
<stop stop-color="white" stop-opacity="0"/>
<stop offset="0.27" stop-color="white" stop-opacity="0.05"/>
<stop offset="0.495" stop-color="white"/>
<stop offset="0.78" stop-color="white" stop-opacity="0.05"/>
<stop offset="1" stop-color="white" stop-opacity="0"/>
</linearGradient>
<linearGradient id="paint1_linear_1_1418" x1="0" y1="198" x2="1353" y2="198" gradientUnits="userSpaceOnUse">
<stop stop-color="white" stop-opacity="0"/>
<stop offset="0.27" stop-color="white" stop-opacity="0.05"/>
<stop offset="0.495" stop-color="white"/>
<stop offset="0.78" stop-color="white" stop-opacity="0.05"/>
<stop offset="1" stop-color="white" stop-opacity="0"/>
</linearGradient>
<clipPath id="clip0_1_1418">
<rect width="1353" height="568" rx="29" fill="white"/>
</clipPath>
</defs>
</svg>
