<svg width="38" height="40" viewBox="0 0 38 40" fill="none" xmlns="http://www.w3.org/2000/svg">
<path d="M4.41667 0.166626H8.58333V6.41663H4.41667V0.166626ZM12.75 0.166626H16.9167V6.41663H12.75V0.166626ZM21.0833 0.166626H25.25V6.41663H21.0833V0.166626ZM33.5833 14.75H29.4167V10.5833H0.25V33.5C0.25 36.9458 3.05417 39.75 6.5 39.75H23.1667C26.6125 39.75 29.4167 36.9458 29.4167 33.5H33.5833C35.8812 33.5 37.75 31.6312 37.75 29.3333V18.9166C37.75 16.6187 35.8812 14.75 33.5833 14.75ZM25.25 33.5C25.25 34.0525 25.0305 34.5824 24.6398 34.9731C24.2491 35.3638 23.7192 35.5833 23.1667 35.5833H6.5C5.94747 35.5833 5.41756 35.3638 5.02686 34.9731C4.63616 34.5824 4.41667 34.0525 4.41667 33.5V14.75H25.25V33.5ZM29.4167 29.3333V18.9166H33.5833L33.5875 29.3333H29.4167Z" fill="#28221E"/>
</svg>
