<svg width="46" height="44" viewBox="0 0 46 44" fill="none" xmlns="http://www.w3.org/2000/svg">
<path d="M17.7917 4.25004C8 4.25004 0.0833363 9.87504 0.0833363 16.75C0.0833363 19.25 1.125 21.5417 3 23.625C1.125 26.125 0.0520863 29.25 0.0833363 32.375V39.6667C0.0833363 41.9584 1.95834 43.8334 4.25 43.8334H31.3333C33.6458 43.8334 35.5 41.9792 35.5 39.6667V32.375C35.5 29.875 34.875 27.375 33.4167 25.0834L37.5833 20.9167L31.3333 14.6667L26.9583 19.0417C23.9654 17.4122 20.5919 16.611 17.1859 16.7209C13.7799 16.8307 10.465 17.8477 7.58334 19.6667C6.79167 18.8959 6.33334 17.8542 6.33334 16.75C6.33334 13 11.5417 9.87504 17.7917 9.87504C20.7083 9.87504 23.625 10.7084 25.7083 11.9584L29.875 7.79171C26.306 5.39929 22.0874 4.1628 17.7917 4.25004ZM17.7917 20.9167C25.0833 20.9167 31.3333 27.1667 31.3333 32.375V39.6667H4.25V32.375C4.25 27.1667 10.5 20.9167 17.7917 20.9167ZM45.9167 13.2084C45.9167 16.6042 43.6458 20.0834 40.4583 20.8542L39.0625 19.4375L37.5833 18H39.1458C41.2292 18 42.7917 15.125 42.7917 13C42.7917 10.875 41.0208 8.70837 38.9375 8.70837V5.58337C42.7917 5.58337 45.9167 9.35421 45.9167 13.2084ZM34.7708 12.0209C33.4792 10.75 32.6875 9.00004 32.6875 7.06254C32.6875 3.20837 35.8125 0.083374 39.6667 0.083374V3.20837C37.5833 3.20837 35.8125 4.93754 35.8125 7.06254C35.8125 9.18754 37.5833 10.9167 39.6667 10.9167V14.0417C37.9583 14.0417 36.375 14.5625 35.0625 15.4584L32.8333 13.2292C33.4167 12.7709 34.0833 12.3542 34.7708 12.0209Z" fill="#28221E"/>
</svg>
